<?xml version="1.0" encoding="UTF-8"?><svg id="Layer_1" xmlns="http://www.w3.org/2000/svg" viewBox="0 0 411.07 399.51"><defs><style>.cls-1{fill:none;}.cls-2{fill:#d73f28;}.cls-3{fill:#1a0a38;}</style></defs><rect class="cls-1" width="411.07" height="399.51"/><path class="cls-2" d="m-77.73,43.85c-.31,1.64-.73,3.28-.92,4.94-.49,4.29-3.05,7.57-5.42,10.89-1.27,1.77-3.39,1.95-5.33,1.06-6.05-2.8-12.14-5.51-18.03-8.62-4.58-2.42-8.93-5.28-13.25-8.15-2.17-1.44-4.12-3.26-6.03-5.06-4.32-4.06-3.4-7.8.7-12.2,1.9-2.03,3.58-4.35,4.92-6.78,1.47-2.66-.06-4.94-3.15-5.07-1.47-.06-2.95.18-4.43.23-1,.03-2.03.09-3-.09-2.27-.43-3.16-2.35-2.11-4.41.55-1.08,1.26-2.08,1.8-3.17,1.47-2.98.28-5.46-3.04-5.55-3.4-.09-6.87.24-10.23.82-4.08.7-7.34-.67-10.1-3.37-9.84-9.62-13.23-21.47-11.56-34.9,1.4-11.25,5.88-21.23,13.01-30.03.51-.63.95-1.32,1.4-1.99.18-.27.32-.57.52-.94-2.59-2.33-5.67-3.43-8.9-4.19-2.18-.52-2.49-1.02-1.57-3.08,1.51-3.35,4.16-5.37,7.61-6.5.79-.26,1.98-.93,2.01-1.47.05-.69-.75-1.63-1.42-2.16-2.66-2.1-2.7-2.06-.27-4.55,6.46-6.59,13.7-12.18,21.58-16.97,1.35-.82,2.38-.87,3.65.11,2.35,1.81,4.77,3.56,7.25,5.18.66.43,1.68.3,2.54.43,0-.86.26-1.85-.08-2.55-1.03-2.2-2.26-4.3-3.47-6.41-.67-1.17-.57-2.04.72-2.63,3.31-1.5,6.62-2.99,9.98-4.51.9,2.21,1.63,4.16,2.49,6.05.2.45.81.72,1.23,1.07.08-.57.36-1.22.19-1.7-.64-1.84-1.43-3.64-2.26-5.69,4.8-1.53,9.59-2.39,14.53-2.03.57.04,1.22,1.1,1.56,1.82,2.12,4.46,4.16,8.96,6.22,13.44l.69-.25c-.35-5.23-.7-10.47-1.06-15.7-.19-2.75-.15-2.82,2.6-3.1,8.35-.84,16.58.08,24.75,1.77,1.29.27,1.67,1.01,1.97,2.18,1.19,4.56,2.45,9.11,3.84,13.62.22.71,1.23,1.17,1.87,1.75.48-.66,1.24-1.25,1.41-1.98,1.04-4.47,2.01-8.96,2.89-13.46.34-1.74,1.01-2.38,2.89-1.98,7.71,1.61,15.08,4.16,22.15,7.61,2.69,1.31,2.68,1.59,1.15,4.25-1.75,3.04-3.4,6.14-4.97,9.28-.28.56.05,1.43.1,2.16.78-.12,1.77.01,2.3-.42,2.83-2.29,5.56-4.7,8.29-7.11,1.24-1.1,2.29-.99,3.57,0,8.95,6.83,15.48,15.55,20.05,25.78.77,1.72.24,2.32-1.91,2.31-13.77-.05-25.79,4.62-36.15,13.58-2.44,2.11-4.5,4.64-6.73,6.99-.89.94-1.15,1.96-.84,3.32.55,2.43-.29,4.54-2.19,6.16-1.67,1.42-3.82,1.26-5.2-.45-.72-.88-1.26-1.91-1.8-2.92-12.13-22.59-30.91-34.1-56.66-34-1.32,0-2.44.24-3.31,1.49-5.73,8.19-11.66,16.25-16.1,25.26-6.4,12.99-9.88,26.57-7.9,41.13.99,7.3,3.68,14.07,7.48,20.38,6.97,11.56,16.47,20.81,26.82,29.25,3.07,2.51,6.39,4.77,9.83,6.74,3.43,1.96,7.15,3.41,10.79,5.11Zm9.05-164.67c-.37-.02-.75-.14-.84-.02-.28.34-.58.75-.63,1.17-.95,7.62-.85,15.23.4,22.81.08.48.6.89.91,1.33.22-.54.7-1.12.62-1.62-1.13-7.39-1.21-14.8-.36-22.22.05-.44-.05-.9-.09-1.45ZM-8.71-83.39c.03-.25.16-.57.06-.74-.15-.24-.48-.53-.73-.53-.46.01-.92.2-1.35.36-6.04,2.27-11.6,5.4-16.68,9.38-.5.39-.64,1.24-.94,1.87.65-.19,1.42-.22,1.92-.61,5.01-3.85,10.44-6.93,16.35-9.15.44-.16.86-.37,1.37-.59Zm-31.4-18.6c.94-1.3.69-3.6-.81-3.96-1.44-.35-3.29.04-4.65.71-1.08.53-.29,3.36,1,4.22,1.46.98,3.35.57,4.47-.97Zm-84.57,37.03c.94-1.41.62-3.16-.75-4.05-1.35-.88-3.25-.52-4.1.79-1.17,1.78-1.07,3.4.27,4.27,1.55,1,3.53.57,4.58-1Zm-8.71-20.76c.72.03,1.19.05,1.66.07-.11-.53-.06-1.18-.36-1.58-2.8-3.8-5.63-7.57-8.51-11.3-.29-.37-.93-.47-1.41-.7,0,.49-.17,1.1.06,1.44,2.81,4.03,5.68,8.02,8.57,12.07Zm20.64-8.84c.71-1.72.19-3.93-1.1-4.87-1.42-1.04-2.26.11-3.02.94-.92,1-.82,4.25.11,4.41,1.28.21,2.67-.28,4.01-.47ZM-2.66-82.5c1.33-1.97,1.31-3.73.13-4.12-.7-.23-1.95.17-2.49.74-1.12,1.17-1.02,3.44.05,3.75.82.24,1.86-.28,2.31-.37Zm-30.69,1.67c.85-.17,1.2-.14,1.34-.29,1.82-1.98,3.64-3.97,5.39-6.01.18-.21-.09-.8-.15-1.21-.4.14-.93.17-1.19.45-1.6,1.73-3.16,3.51-4.68,5.31-.29.35-.37.88-.71,1.75Zm-112.72-4.29c.47.01.95.02,1.43.03-.08-.47-.01-1.07-.28-1.39-1.28-1.56-2.62-3.07-4.01-4.53-.29-.31-.88-.34-1.33-.5.03.48-.13,1.1.11,1.41,1.26,1.65,2.63,3.23,4.09,4.98Zm71.72-23.52c-.29-2.33-.56-4.59-.89-6.84-.02-.15-.61-.36-.83-.28-.24.1-.54.51-.52.77.15,2.02.34,4.03.58,6.04.03.25.36.6.62.66.25.06.57-.18,1.04-.36Zm-39.68.93c.07-.53.21-.84.11-1.02-.84-1.6-1.7-3.19-2.61-4.74-.09-.16-.67-.19-.89-.06-.21.12-.41.63-.32.81.78,1.55,1.59,3.09,2.49,4.58.15.26.72.27,1.22.44Zm-13.06,50.81c-.4-1.5-.59-2.53-1.01-3.45-.06-.13-1.74.19-1.76.36-.07.99.03,2.04.33,2.98.07.2,1.19.07,2.43.11Zm79.38-34.75c.94-.25,1.82-.28,1.9-.55.2-.67.03-1.44,0-2.18-.53.11-1.33.05-1.51.36-.32.53-.25,1.29-.39,2.37Zm-85.24,38.53c-.39-.88-.5-1.69-.89-1.86-.43-.19-1.43.04-1.62.39-.22.4,0,1.37.38,1.65.34.26,1.13-.06,2.13-.18Zm19.8-37.84c-1.1.47-1.84.56-2.08.95-.27.45-.08,1.16-.09,1.77.57-.14,1.31-.1,1.66-.46.34-.34.27-1.07.51-2.26Zm66.71-6.65c-.28-.78-.34-1.52-.68-1.69-.38-.19-1.37.02-1.46.28-.18.48-.04,1.24.27,1.66.15.2.99-.11,1.87-.25Zm-63.55,5.89c-.33-.91-.38-1.69-.71-1.83-.46-.2-1.12.08-1.7.16.14.52.13,1.21.46,1.5.31.27.99.11,1.95.17Zm-21.24,28.92c-.93.48-1.65.63-1.91,1.06-.2.34.18,1.02.31,1.55.57-.18,1.3-.21,1.66-.59.25-.27,0-1.02-.06-2.02Z"/><path class="cls-2" d="m-23.37-10.78c-.66-.62-1.59-.97-2.15-1.79-.81-1.17-.78-2.36-.14-3.55.58-1.07,1.27-2.08,1.94-3.11,1.08-1.67,2.06-3.41,3.15-5.07.5-.77.98-1.55,1.49-2.31,1.3-1.96,2.53-3.97,3.84-5.93.35-.52.66-1.07,1.04-1.57,1.25-1.7,2.39-3.48,3.57-5.22.76-1.12,1.63-2.04,2.74-2.74,1.56-.99,3.31-1.24,5.12-1.17.32.01.67,0,.96.11.5.18.73-.08.93-.45,1.06-1.93,2.18-3.83,3.3-5.73,1.01-1.72,2.04-3.43,3.25-5.02.94-1.24,1.97-2.41,3.1-3.5.92-.89,1.86-1.72,3.06-2.14,1.54-.54,3.13-.6,4.72-.21,2.81.69,5.4,1.92,7.97,3.2,1.45.73,2.85,1.55,4.1,2.58,1.73,1.42,2.88,3.21,3.38,5.43.55,2.44,0,4.71-.78,6.98-.57,1.67-1.27,3.28-2.08,4.84-.39.74-.76,1.5-1.23,2.2-1.2,1.79-2.34,3.62-3.51,5.43-.11.17-.12.31.02.49,1.3,1.6,2.09,3.45,2.37,5.48.12.9.01,1.83-.21,2.73-.45,1.77-1.31,3.37-2.13,4.98-.75,1.47-1.48,2.94-2.26,4.39-.47.87-1.02,1.71-1.53,2.56-.43.72-.85,1.45-1.26,2.19-.56,1-1.11,2-1.67,3-.64,1.14-1.29,2.28-1.94,3.41-.46.79-.93,1.58-1.4,2.36-.92,1.5-1.84,2.99-2.72,4.51-.7,1.21-2.35,1.88-3.79,1.06-1.43-.81-2.9-1.56-4.34-2.36-1.02-.56-2.01-1.17-3.03-1.75-1.06-.6-2.12-1.19-3.18-1.79-.94-.53-1.87-1.06-2.81-1.58-1.22-.68-2.45-1.33-3.67-2.01-.74-.41-1.46-.83-2.19-1.27-1.52-.91-3.05-1.81-4.56-2.75-.73-.46-1.45-.94-2.16-1.43-.97-.66-1.96-1.28-2.94-1.91-.77-.5-1.5-1.05-2.32-1.56ZM11.1-49.48c-.96,1.17-1.65,2.54-2.4,3.87-.49.87-1.02,1.73-1.46,2.63-.36.72-.78,1.41-1.13,2.14-.09.18-.26.43.08.6,1.95.94,3.91,1.87,5.85,2.83,1.22.6,2.43,1.23,3.62,1.88,1.02.56,2.01,1.17,3.02,1.76.18.11.26.07.37-.12.93-1.59,1.86-3.19,2.82-4.77.85-1.41,1.77-2.79,2.6-4.21.36-.63.69-1.29.78-2.04.26-2.13-.68-3.7-2.28-4.99-.9-.73-1.95-1.21-2.94-1.8-.95-.57-1.95-1.07-3.1-1.17-1.13-.1-2.2-.08-3.21.57-1.12.73-1.9,1.74-2.62,2.84Zm-2.97,21.18c-.98-.79-2.04-1.01-3.25-.58-1.03.37-1.86,1-2.56,1.81-.67.78-1.14,1.7-1.68,2.56-.28.45-.63.88-.85,1.36-.56,1.22-1.34,2.3-1.99,3.46-.53.95-1.19,1.83-1.7,2.78-.79,1.48-1.73,2.87-2.58,4.3-.28.47-.24.82.2,1.14.94.68,2.02,1.13,2.99,1.75,1.08.69,2.17,1.36,3.3,1.96.4.21.98.11,1.08-.23.25-.8.7-1.47,1.18-2.14.43-.6.78-1.24,1.17-1.86.92-1.44,1.7-2.97,2.65-4.4.26-.4.51-.82.76-1.23.48-.81.9-1.65,1.39-2.46.49-.82,1.02-1.62,1.41-2.51.97-2.24.27-4.63-1.5-5.74Z"/><path class="cls-2" d="m127.8,43.85c-.31,1.64-.73,3.28-.92,4.94-.49,4.29-3.05,7.57-5.42,10.89-1.27,1.77-3.39,1.95-5.33,1.06-6.05-2.8-12.14-5.51-18.03-8.62-4.58-2.42-8.93-5.28-13.25-8.15-2.17-1.44-4.12-3.26-6.03-5.06-4.32-4.06-3.4-7.8.7-12.2,1.9-2.03,3.58-4.35,4.92-6.78,1.47-2.66-.06-4.94-3.15-5.07-1.47-.06-2.95.18-4.43.23-1,.03-2.03.09-3-.09-2.27-.43-3.16-2.35-2.11-4.41.55-1.08,1.26-2.08,1.8-3.17,1.47-2.98.28-5.46-3.04-5.55-3.4-.09-6.87.24-10.23.82-4.08.7-7.34-.67-10.1-3.37-9.84-9.62-13.23-21.47-11.56-34.9,1.4-11.25,5.88-21.23,13.01-30.03.51-.63.95-1.32,1.4-1.99.18-.27.32-.57.52-.94-2.59-2.33-5.67-3.43-8.9-4.19-2.18-.52-2.49-1.02-1.57-3.08,1.51-3.35,4.16-5.37,7.61-6.5.79-.26,1.98-.93,2.01-1.47.05-.69-.75-1.63-1.42-2.16-2.66-2.1-2.7-2.06-.27-4.55,6.46-6.59,13.7-12.18,21.58-16.97,1.35-.82,2.38-.87,3.65.11,2.35,1.81,4.77,3.56,7.25,5.18.66.43,1.68.3,2.54.43,0-.86.26-1.85-.08-2.55-1.03-2.2-2.26-4.3-3.47-6.41-.67-1.17-.57-2.04.72-2.63,3.31-1.5,6.62-2.99,9.98-4.51.9,2.21,1.63,4.16,2.49,6.05.2.45.81.72,1.23,1.07.08-.57.36-1.22.19-1.7-.64-1.84-1.43-3.64-2.26-5.69,4.8-1.53,9.59-2.39,14.53-2.03.57.04,1.22,1.1,1.56,1.82,2.12,4.46,4.16,8.96,6.22,13.44l.69-.25c-.35-5.23-.7-10.47-1.06-15.7-.19-2.75-.15-2.82,2.6-3.1,8.35-.84,16.58.08,24.75,1.77,1.29.27,1.67,1.01,1.97,2.18,1.19,4.56,2.45,9.11,3.84,13.62.22.71,1.23,1.17,1.87,1.75.48-.66,1.24-1.25,1.41-1.98,1.04-4.47,2.01-8.96,2.89-13.46.34-1.74,1.01-2.38,2.89-1.98,7.71,1.61,15.08,4.16,22.15,7.61,2.69,1.31,2.68,1.59,1.15,4.25-1.75,3.04-3.4,6.14-4.97,9.28-.28.56.05,1.43.1,2.16.78-.12,1.77.01,2.3-.42,2.83-2.29,5.56-4.7,8.29-7.11,1.24-1.1,2.29-.99,3.57,0,8.95,6.83,15.48,15.55,20.05,25.78.77,1.72.24,2.32-1.91,2.31-13.77-.05-25.79,4.62-36.15,13.58-2.44,2.11-4.5,4.64-6.73,6.99-.89.94-1.15,1.96-.84,3.32.55,2.43-.29,4.54-2.19,6.16-1.67,1.42-3.82,1.26-5.2-.45-.72-.88-1.26-1.91-1.8-2.92-12.13-22.59-30.91-34.1-56.66-34-1.32,0-2.44.24-3.31,1.49-5.73,8.19-11.66,16.25-16.1,25.26-6.4,12.99-9.88,26.57-7.9,41.13.99,7.3,3.68,14.07,7.48,20.38,6.97,11.56,16.47,20.81,26.82,29.25,3.07,2.51,6.39,4.77,9.83,6.74,3.43,1.96,7.15,3.41,10.79,5.11Zm9.05-164.67c-.37-.02-.75-.14-.84-.02-.28.34-.58.75-.63,1.17-.95,7.62-.85,15.23.4,22.81.08.48.6.89.91,1.33.22-.54.7-1.12.62-1.62-1.13-7.39-1.21-14.8-.36-22.22.05-.44-.05-.9-.09-1.45Zm59.97,37.43c.03-.25.16-.57.06-.74-.15-.24-.48-.53-.73-.53-.46.01-.92.2-1.35.36-6.04,2.27-11.6,5.4-16.68,9.38-.5.39-.64,1.24-.94,1.87.65-.19,1.42-.22,1.92-.61,5.01-3.85,10.44-6.93,16.35-9.15.44-.16.86-.37,1.37-.59Zm-31.4-18.6c.94-1.3.69-3.6-.81-3.96-1.44-.35-3.29.04-4.65.71-1.08.53-.29,3.36,1,4.22,1.46.98,3.35.57,4.47-.97Zm-84.57,37.03c.94-1.41.62-3.16-.75-4.05-1.35-.88-3.25-.52-4.1.79-1.17,1.78-1.07,3.4.27,4.27,1.55,1,3.53.57,4.58-1Zm-8.71-20.76c.72.03,1.19.05,1.66.07-.11-.53-.06-1.18-.36-1.58-2.8-3.8-5.63-7.57-8.51-11.3-.29-.37-.93-.47-1.41-.7,0,.49-.17,1.1.06,1.44,2.81,4.03,5.68,8.02,8.57,12.07Zm20.64-8.84c.71-1.72.19-3.93-1.1-4.87-1.42-1.04-2.26.11-3.02.94-.92,1-.82,4.25.11,4.41,1.28.21,2.67-.28,4.01-.47Zm110.09,12.07c1.33-1.97,1.31-3.73.13-4.12-.7-.23-1.95.17-2.49.74-1.12,1.17-1.02,3.44.05,3.75.82.24,1.86-.28,2.31-.37Zm-30.69,1.67c.85-.17,1.2-.14,1.34-.29,1.82-1.98,3.64-3.97,5.39-6.01.18-.21-.09-.8-.15-1.21-.4.14-.93.17-1.19.45-1.6,1.73-3.16,3.51-4.68,5.31-.29.35-.37.88-.71,1.75Zm-112.72-4.29c.47.01.95.02,1.43.03-.08-.47-.01-1.07-.28-1.39-1.28-1.56-2.62-3.07-4.01-4.53-.29-.31-.88-.34-1.33-.5.03.48-.13,1.1.11,1.41,1.26,1.65,2.63,3.23,4.09,4.98Zm71.72-23.52c-.29-2.33-.56-4.59-.89-6.84-.02-.15-.61-.36-.83-.28-.24.1-.54.51-.52.77.15,2.02.34,4.03.58,6.04.03.25.36.6.62.66.25.06.57-.18,1.04-.36Zm-39.68.93c.07-.53.21-.84.11-1.02-.84-1.6-1.7-3.19-2.61-4.74-.09-.16-.67-.19-.89-.06-.21.12-.41.63-.32.81.78,1.55,1.59,3.09,2.49,4.58.15.26.72.27,1.22.44Zm-13.06,50.81c-.4-1.5-.59-2.53-1.01-3.45-.06-.13-1.74.19-1.76.36-.07.99.03,2.04.33,2.98.07.2,1.19.07,2.43.11Zm79.38-34.75c.94-.25,1.82-.28,1.9-.55.2-.67.03-1.44,0-2.18-.53.11-1.33.05-1.51.36-.32.53-.25,1.29-.39,2.37Zm-85.24,38.53c-.39-.88-.5-1.69-.89-1.86-.43-.19-1.43.04-1.62.39-.22.4,0,1.37.38,1.65.34.26,1.13-.06,2.13-.18Zm19.8-37.84c-1.1.47-1.84.56-2.08.95-.27.45-.08,1.16-.09,1.77.57-.14,1.31-.1,1.66-.46.34-.34.27-1.07.51-2.26Zm66.71-6.65c-.28-.78-.34-1.52-.68-1.69-.38-.19-1.37.02-1.46.28-.18.48-.04,1.24.27,1.66.15.2.99-.11,1.87-.25Zm-63.55,5.89c-.33-.91-.38-1.69-.71-1.83-.46-.2-1.12.08-1.7.16.14.52.13,1.21.46,1.5.31.27.99.11,1.95.17Zm-21.24,28.92c-.93.48-1.65.63-1.91,1.06-.2.34.18,1.02.31,1.55.57-.18,1.3-.21,1.66-.59.25-.27,0-1.02-.06-2.02Z"/><path class="cls-3" d="m123.93-5.18c-2.43,3.21-5.2,5.93-8.97,7.41-5.21,2.06-10.21,1.68-14.27-2.34-3.09-3.05-6.11-6.35-8.35-10.03-5.78-9.53-2.73-18.63,7.45-23.04,4.24-1.84,8.76-2.77,13.41-2.65,11.25.3,17.36,7.92,15.51,19.23-.69,4.21-2.46,7.97-4.78,11.42Z"/><path class="cls-3" d="m159.82,20.86c-2.43,3.26-5.41,6.11-9.62,7.39-4.08,1.24-7.68.46-10.92-2.37-3.21-2.79-5.77-6.04-7.54-9.9-2.91-6.33-.99-13.12,4.88-16.82,4.62-2.92,9.75-4.34,15.2-4.23,8.72.18,13.75,6.33,12.42,14.95-.61,3.94-2.09,7.52-4.43,10.98Z"/><path class="cls-3" d="m110.42,15.54c2.35-2.85,6.22-5.03,10.23-7.01,1.32-.65,2.7-1.29,4.13-1.62,2.47-.57,4.17.39,4.33,2.91.19,3.19-.08,6.44-.47,9.63-.33,2.74-.96,5.46-1.72,8.11-1.17,4.05-5.41,5.31-7.92,2.34-.76-.9-.92-2.43-1.05-3.7-.19-1.9-.76-2.44-2.56-1.93-2.83.8-4.88.36-6.06-1.3-1.42-2-1.22-4.21,1.11-7.44Zm16.38-1.9c-.96.36-1.92.57-1.91.74.04,1.21.29,2.4.47,3.61.52-.09,1.48-.15,1.49-.28.08-1.22,0-2.44-.04-4.07Zm-2.31,8.66c.88-.27,1.64-.28,1.83-.62.2-.35.03-1.23-.29-1.48-.3-.23-1.22-.13-1.48.16-.27.3-.06,1.02-.06,1.94Z"/><path class="cls-2" d="m143.97,44.87c4.02-1.25,8.04-2.51,12.1-3.77-1.64,2.94-4,5.56-6.69,7.91.33-.41,1.01-.92.92-1.21-.27-.9-.73-1.78-1.32-2.5-.17-.2-1.5.19-1.5.27.05.87.1,1.8.47,2.56.21.44,1.01.59,1.54.87-2.47,2.03-5.13,3.16-8.34,1.83-2.48-1.02-3.23-3.38-4.56-5.53,2.67-.16,5.06-.3,7.46-.44-.77.63-1.5,1.37-.55,2.28.3.29,1.31.22,1.72-.08.97-.71.42-1.65-1.24-2.19Z"/><path class="cls-2" d="m161.16,24.37c-.99,5.28-3.54,9.82-6.81,14.01l-.71-.35c1.25-2.25,2.63-4.44,3.73-6.76,1.12-2.36,1.97-4.85,2.93-7.28.29.12.58.25.87.37Z"/><path class="cls-3" d="m-9.39,46.76c-.49-.46-1.17-.73-1.58-1.35-.59-.88-.56-1.76-.07-2.64.44-.79.96-1.53,1.47-2.29.82-1.23,1.56-2.51,2.39-3.73.38-.56.74-1.14,1.13-1.7.98-1.45,1.91-2.92,2.9-4.36.26-.38.5-.79.78-1.16.95-1.25,1.8-2.56,2.7-3.84.57-.82,1.23-1.5,2.06-2.01,1.17-.72,2.47-.89,3.82-.82.24.01.49.01.71.09.37.14.54-.05.7-.32.81-1.42,1.66-2.82,2.5-4.22.77-1.27,1.54-2.53,2.46-3.7.71-.91,1.48-1.77,2.33-2.57.69-.65,1.4-1.26,2.29-1.56,1.15-.39,2.33-.42,3.51-.11,2.08.54,3.99,1.47,5.88,2.45,1.07.55,2.1,1.18,3.02,1.95,1.27,1.07,2.1,2.41,2.46,4.06.39,1.81-.05,3.5-.65,5.17-.44,1.23-.97,2.42-1.59,3.57-.29.55-.58,1.1-.94,1.62-.9,1.32-1.77,2.66-2.66,4-.08.13-.1.23,0,.36.95,1.2,1.52,2.58,1.71,4.09.08.67,0,1.36-.18,2.02-.35,1.31-1,2.49-1.63,3.68-.57,1.08-1.13,2.17-1.72,3.24-.36.65-.78,1.26-1.16,1.89-.33.53-.64,1.07-.96,1.61-.43.74-.84,1.48-1.27,2.21-.49.84-.98,1.68-1.47,2.51-.35.58-.7,1.16-1.06,1.74-.69,1.1-1.4,2.2-2.07,3.32-.53.89-1.76,1.37-2.82.75-1.05-.62-2.14-1.18-3.2-1.79-.75-.43-1.48-.89-2.23-1.32-.78-.46-1.56-.91-2.35-1.36-.69-.4-1.38-.81-2.07-1.2-.9-.51-1.81-1.01-2.71-1.53-.54-.31-1.08-.63-1.61-.96-1.12-.69-2.25-1.37-3.36-2.09-.54-.35-1.07-.71-1.59-1.08-.71-.5-1.44-.97-2.17-1.45-.57-.38-1.11-.79-1.71-1.18Zm25.96-28.41c-.73.86-1.25,1.87-1.82,2.85-.37.64-.77,1.27-1.11,1.94-.27.53-.59,1.04-.86,1.58-.07.14-.19.32.05.44,1.44.71,2.88,1.42,4.32,2.15.9.46,1.79.93,2.67,1.43.75.42,1.48.89,2.22,1.33.14.08.19.05.28-.08.7-1.17,1.41-2.35,2.13-3.51.65-1.04,1.34-2.05,1.97-3.1.28-.46.53-.95.6-1.51.21-1.58-.47-2.75-1.65-3.73-.66-.55-1.44-.92-2.16-1.36-.7-.43-1.43-.81-2.29-.9-.84-.08-1.63-.08-2.39.4-.84.53-1.43,1.27-1.98,2.08Zm-2.4,15.7c-.72-.6-1.51-.77-2.41-.46-.77.26-1.39.72-1.92,1.32-.51.57-.86,1.25-1.27,1.89-.21.33-.47.65-.64,1-.43.9-1.01,1.7-1.51,2.55-.41.7-.9,1.34-1.29,2.05-.6,1.09-1.31,2.11-1.96,3.17-.21.35-.19.61.14.85.69.51,1.49.86,2.21,1.33.8.52,1.6,1.03,2.43,1.49.29.16.72.09.81-.16.19-.59.53-1.09.89-1.57.32-.44.59-.92.89-1.37.69-1.06,1.29-2.19,2.01-3.24.2-.29.38-.6.57-.91.37-.59.68-1.22,1.05-1.81.37-.61.77-1.19,1.07-1.85.74-1.65.24-3.44-1.06-4.27Z"/><path class="cls-2" d="m182.16-10.78c-.66-.62-1.59-.97-2.15-1.79-.81-1.17-.78-2.36-.14-3.55.58-1.07,1.27-2.08,1.94-3.11,1.08-1.67,2.06-3.41,3.15-5.07.5-.77.98-1.55,1.49-2.31,1.3-1.96,2.53-3.97,3.84-5.93.35-.52.66-1.07,1.04-1.57,1.25-1.7,2.39-3.48,3.57-5.22.76-1.12,1.63-2.04,2.74-2.74,1.56-.99,3.31-1.24,5.12-1.17.32.01.67,0,.96.11.5.18.73-.08.93-.45,1.06-1.93,2.18-3.83,3.3-5.73,1.01-1.72,2.04-3.43,3.25-5.02.94-1.24,1.97-2.41,3.1-3.5.92-.89,1.86-1.72,3.06-2.14,1.54-.54,3.13-.6,4.72-.21,2.81.69,5.4,1.92,7.97,3.2,1.45.73,2.85,1.55,4.1,2.58,1.73,1.42,2.88,3.21,3.38,5.43.55,2.44,0,4.71-.78,6.98-.57,1.67-1.27,3.28-2.08,4.84-.39.74-.76,1.5-1.23,2.2-1.2,1.79-2.34,3.62-3.51,5.43-.11.17-.12.31.02.49,1.3,1.6,2.09,3.45,2.37,5.48.12.9.01,1.83-.21,2.73-.45,1.77-1.31,3.37-2.13,4.98-.75,1.47-1.48,2.94-2.26,4.39-.47.87-1.02,1.71-1.53,2.56-.43.72-.85,1.45-1.26,2.19-.56,1-1.11,2-1.67,3-.64,1.14-1.29,2.28-1.94,3.41-.46.79-.93,1.58-1.4,2.36-.92,1.5-1.84,2.99-2.72,4.51-.7,1.21-2.35,1.88-3.79,1.06-1.43-.81-2.9-1.56-4.34-2.36-1.02-.56-2.01-1.17-3.03-1.75-1.06-.6-2.12-1.19-3.18-1.79-.94-.53-1.87-1.06-2.81-1.58-1.22-.68-2.45-1.33-3.67-2.01-.74-.41-1.46-.83-2.19-1.27-1.52-.91-3.05-1.81-4.56-2.75-.73-.46-1.45-.94-2.16-1.43-.97-.66-1.96-1.28-2.94-1.91-.77-.5-1.5-1.05-2.32-1.56Zm34.48-38.71c-.96,1.17-1.65,2.54-2.4,3.87-.49.87-1.02,1.73-1.46,2.63-.36.72-.78,1.41-1.13,2.14-.09.18-.26.43.08.6,1.95.94,3.91,1.87,5.85,2.83,1.22.6,2.43,1.23,3.62,1.88,1.02.56,2.01,1.17,3.02,1.76.18.11.26.07.37-.12.93-1.59,1.86-3.19,2.82-4.77.85-1.41,1.77-2.79,2.6-4.21.36-.63.69-1.29.78-2.04.26-2.13-.68-3.7-2.28-4.99-.9-.73-1.95-1.21-2.94-1.8-.95-.57-1.95-1.07-3.1-1.17-1.13-.1-2.2-.08-3.21.57-1.12.73-1.9,1.74-2.62,2.84Zm-2.97,21.18c-.98-.79-2.04-1.01-3.25-.58-1.03.37-1.86,1-2.56,1.81-.67.78-1.14,1.7-1.68,2.56-.28.45-.63.88-.85,1.36-.56,1.22-1.34,2.3-1.99,3.46-.53.95-1.19,1.83-1.7,2.78-.79,1.48-1.73,2.87-2.58,4.3-.28.47-.24.82.2,1.14.94.68,2.02,1.13,2.99,1.75,1.08.69,2.17,1.36,3.3,1.96.4.21.98.11,1.08-.23.25-.8.7-1.47,1.18-2.14.43-.6.78-1.24,1.17-1.86.92-1.44,1.7-2.97,2.65-4.4.26-.4.51-.82.76-1.23.48-.81.9-1.65,1.39-2.46.49-.82,1.02-1.62,1.41-2.51.97-2.24.27-4.63-1.5-5.74Z"/><path class="cls-2" d="m333.34,43.85c-.31,1.64-.73,3.28-.92,4.94-.49,4.29-3.05,7.57-5.42,10.89-1.27,1.77-3.39,1.95-5.33,1.06-6.05-2.8-12.14-5.51-18.03-8.62-4.58-2.42-8.93-5.28-13.25-8.15-2.17-1.44-4.12-3.26-6.03-5.06-4.32-4.06-3.4-7.8.7-12.2,1.9-2.03,3.58-4.35,4.92-6.78,1.47-2.66-.06-4.94-3.15-5.07-1.47-.06-2.95.18-4.43.23-1,.03-2.03.09-3-.09-2.27-.43-3.16-2.35-2.11-4.41.55-1.08,1.26-2.08,1.8-3.17,1.47-2.98.28-5.46-3.04-5.55-3.4-.09-6.87.24-10.23.82-4.08.7-7.34-.67-10.1-3.37-9.84-9.62-13.23-21.47-11.56-34.9,1.4-11.25,5.88-21.23,13.01-30.03.51-.63.95-1.32,1.4-1.99.18-.27.32-.57.52-.94-2.59-2.33-5.67-3.43-8.9-4.19-2.18-.52-2.49-1.02-1.57-3.08,1.51-3.35,4.16-5.37,7.61-6.5.79-.26,1.98-.93,2.01-1.47.05-.69-.75-1.63-1.42-2.16-2.66-2.1-2.7-2.06-.27-4.55,6.46-6.59,13.7-12.18,21.58-16.97,1.35-.82,2.38-.87,3.65.11,2.35,1.81,4.77,3.56,7.25,5.18.66.43,1.68.3,2.54.43,0-.86.26-1.85-.08-2.55-1.03-2.2-2.26-4.3-3.47-6.41-.67-1.17-.57-2.04.72-2.63,3.31-1.5,6.62-2.99,9.98-4.51.9,2.21,1.63,4.16,2.49,6.05.2.45.81.72,1.23,1.07.08-.57.36-1.22.19-1.7-.64-1.84-1.43-3.64-2.26-5.69,4.8-1.53,9.59-2.39,14.53-2.03.57.04,1.22,1.1,1.56,1.82,2.12,4.46,4.16,8.96,6.22,13.44l.69-.25c-.35-5.23-.7-10.47-1.06-15.7-.19-2.75-.15-2.82,2.6-3.1,8.35-.84,16.58.08,24.75,1.77,1.29.27,1.67,1.01,1.97,2.18,1.19,4.56,2.45,9.11,3.84,13.62.22.71,1.23,1.17,1.87,1.75.48-.66,1.24-1.25,1.41-1.98,1.04-4.47,2.01-8.96,2.89-13.46.34-1.74,1.01-2.38,2.89-1.98,7.71,1.61,15.08,4.16,22.15,7.61,2.69,1.31,2.68,1.59,1.15,4.25-1.75,3.04-3.4,6.14-4.97,9.28-.28.56.05,1.43.1,2.16.78-.12,1.77.01,2.3-.42,2.83-2.29,5.56-4.7,8.29-7.11,1.24-1.1,2.29-.99,3.57,0,8.95,6.83,15.48,15.55,20.05,25.78.77,1.72.24,2.32-1.91,2.31-13.77-.05-25.79,4.62-36.15,13.58-2.44,2.11-4.5,4.64-6.73,6.99-.89.94-1.15,1.96-.84,3.32.55,2.43-.29,4.54-2.19,6.16-1.67,1.42-3.82,1.26-5.2-.45-.72-.88-1.26-1.91-1.8-2.92-12.13-22.59-30.91-34.1-56.66-34-1.32,0-2.44.24-3.31,1.49-5.73,8.19-11.66,16.25-16.1,25.26-6.4,12.99-9.88,26.57-7.9,41.13.99,7.3,3.68,14.07,7.48,20.38,6.97,11.56,16.47,20.81,26.82,29.25,3.07,2.51,6.39,4.77,9.83,6.74,3.43,1.96,7.15,3.41,10.79,5.11Zm9.05-164.67c-.37-.02-.75-.14-.84-.02-.28.34-.58.75-.63,1.17-.95,7.62-.85,15.23.4,22.81.08.48.6.89.91,1.33.22-.54.7-1.12.62-1.62-1.13-7.39-1.21-14.8-.36-22.22.05-.44-.05-.9-.09-1.45Zm59.97,37.43c.03-.25.16-.57.06-.74-.15-.24-.48-.53-.73-.53-.46.01-.92.2-1.35.36-6.04,2.27-11.6,5.4-16.68,9.38-.5.39-.64,1.24-.94,1.87.65-.19,1.42-.22,1.92-.61,5.01-3.85,10.44-6.93,16.35-9.15.44-.16.86-.37,1.37-.59Zm-31.4-18.6c.94-1.3.69-3.6-.81-3.96-1.44-.35-3.29.04-4.65.71-1.08.53-.29,3.36,1,4.22,1.46.98,3.35.57,4.47-.97Zm-84.57,37.03c.94-1.41.62-3.16-.75-4.05-1.35-.88-3.25-.52-4.1.79-1.17,1.78-1.07,3.4.27,4.27,1.55,1,3.53.57,4.58-1Zm-8.71-20.76c.72.03,1.19.05,1.66.07-.11-.53-.06-1.18-.36-1.58-2.8-3.8-5.63-7.57-8.51-11.3-.29-.37-.93-.47-1.41-.7,0,.49-.17,1.1.06,1.44,2.81,4.03,5.68,8.02,8.57,12.07Zm20.64-8.84c.71-1.72.19-3.93-1.1-4.87-1.42-1.04-2.26.11-3.02.94-.92,1-.82,4.25.11,4.41,1.28.21,2.67-.28,4.01-.47Zm110.09,12.07c1.33-1.97,1.31-3.73.13-4.12-.7-.23-1.95.17-2.49.74-1.12,1.17-1.02,3.44.05,3.75.82.24,1.86-.28,2.31-.37Zm-30.69,1.67c.85-.17,1.2-.14,1.34-.29,1.82-1.98,3.64-3.97,5.39-6.01.18-.21-.09-.8-.15-1.21-.4.14-.93.17-1.19.45-1.6,1.73-3.16,3.51-4.68,5.31-.29.35-.37.88-.71,1.75Zm-112.72-4.29c.47.01.95.02,1.43.03-.08-.47-.01-1.07-.28-1.39-1.28-1.56-2.62-3.07-4.01-4.53-.29-.31-.88-.34-1.33-.5.03.48-.13,1.1.11,1.41,1.26,1.65,2.63,3.23,4.09,4.98Zm71.72-23.52c-.29-2.33-.56-4.59-.89-6.84-.02-.15-.61-.36-.83-.28-.24.1-.54.51-.52.77.15,2.02.34,4.03.58,6.04.03.25.36.6.62.66.25.06.57-.18,1.04-.36Zm-39.68.93c.07-.53.21-.84.11-1.02-.84-1.6-1.7-3.19-2.61-4.74-.09-.16-.67-.19-.89-.06-.21.12-.41.63-.32.81.78,1.55,1.59,3.09,2.49,4.58.15.26.72.27,1.22.44Zm-13.06,50.81c-.4-1.5-.59-2.53-1.01-3.45-.06-.13-1.74.19-1.76.36-.07.99.03,2.04.33,2.98.07.2,1.19.07,2.43.11Zm79.38-34.75c.94-.25,1.82-.28,1.9-.55.2-.67.03-1.44,0-2.18-.53.11-1.33.05-1.51.36-.32.53-.25,1.29-.39,2.37Zm-85.24,38.53c-.39-.88-.5-1.69-.89-1.86-.43-.19-1.43.04-1.62.39-.22.4,0,1.37.38,1.65.34.26,1.13-.06,2.13-.18Zm19.8-37.84c-1.1.47-1.84.56-2.08.95-.27.45-.08,1.16-.09,1.77.57-.14,1.31-.1,1.66-.46.34-.34.27-1.07.51-2.26Zm66.71-6.65c-.28-.78-.34-1.52-.68-1.69-.38-.19-1.37.02-1.46.28-.18.48-.04,1.24.27,1.66.15.2.99-.11,1.87-.25Zm-63.55,5.89c-.33-.91-.38-1.69-.71-1.83-.46-.2-1.12.08-1.7.16.14.52.13,1.21.46,1.5.31.27.99.11,1.95.17Zm-21.24,28.92c-.93.48-1.65.63-1.91,1.06-.2.34.18,1.02.31,1.55.57-.18,1.3-.21,1.66-.59.25-.27,0-1.02-.06-2.02Z"/><path class="cls-3" d="m329.46-5.18c-2.43,3.21-5.2,5.93-8.97,7.41-5.21,2.06-10.21,1.68-14.27-2.34-3.09-3.05-6.11-6.35-8.35-10.03-5.78-9.53-2.73-18.63,7.45-23.04,4.24-1.84,8.76-2.77,13.41-2.65,11.25.3,17.36,7.92,15.51,19.23-.69,4.21-2.46,7.97-4.78,11.42Z"/><path class="cls-3" d="m365.36,20.86c-2.43,3.26-5.41,6.11-9.62,7.39-4.08,1.24-7.68.46-10.92-2.37-3.21-2.79-5.77-6.04-7.54-9.9-2.91-6.33-.99-13.12,4.88-16.82,4.62-2.92,9.75-4.34,15.2-4.23,8.72.18,13.75,6.33,12.42,14.95-.61,3.94-2.09,7.52-4.43,10.98Z"/><path class="cls-3" d="m315.95,15.54c2.35-2.85,6.22-5.03,10.23-7.01,1.32-.65,2.7-1.29,4.13-1.62,2.47-.57,4.17.39,4.33,2.91.19,3.19-.08,6.44-.47,9.63-.33,2.74-.96,5.46-1.72,8.11-1.17,4.05-5.41,5.31-7.92,2.34-.76-.9-.92-2.43-1.05-3.7-.19-1.9-.76-2.44-2.56-1.93-2.83.8-4.88.36-6.06-1.3-1.42-2-1.22-4.21,1.11-7.44Zm16.38-1.9c-.96.36-1.92.57-1.91.74.04,1.21.29,2.4.47,3.61.52-.09,1.48-.15,1.49-.28.08-1.22,0-2.44-.04-4.07Zm-2.31,8.66c.88-.27,1.64-.28,1.83-.62.2-.35.03-1.23-.29-1.48-.3-.23-1.22-.13-1.48.16-.27.3-.06,1.02-.06,1.94Z"/><path class="cls-2" d="m349.5,44.87c4.02-1.25,8.04-2.51,12.1-3.77-1.64,2.94-4,5.56-6.69,7.91.33-.41,1.01-.92.92-1.21-.27-.9-.73-1.78-1.32-2.5-.17-.2-1.5.19-1.5.27.05.87.1,1.8.47,2.56.21.44,1.01.59,1.54.87-2.47,2.03-5.13,3.16-8.34,1.83-2.48-1.02-3.23-3.38-4.56-5.53,2.67-.16,5.06-.3,7.46-.44-.77.63-1.5,1.37-.55,2.28.3.29,1.31.22,1.72-.08.97-.71.42-1.65-1.24-2.19Z"/><path class="cls-2" d="m366.69,24.37c-.99,5.28-3.54,9.82-6.81,14.01l-.71-.35c1.25-2.25,2.63-4.44,3.73-6.76,1.12-2.36,1.97-4.85,2.93-7.28.29.12.58.25.87.37Z"/><path class="cls-3" d="m196.15,46.76c-.49-.46-1.17-.73-1.58-1.35-.59-.88-.56-1.76-.07-2.64.44-.79.96-1.53,1.47-2.29.82-1.23,1.56-2.51,2.39-3.73.38-.56.74-1.14,1.13-1.7.98-1.45,1.91-2.92,2.9-4.36.26-.38.5-.79.78-1.16.95-1.25,1.8-2.56,2.7-3.84.57-.82,1.23-1.5,2.06-2.01,1.17-.72,2.47-.89,3.82-.82.24.01.49.01.71.09.37.14.54-.05.7-.32.81-1.42,1.66-2.82,2.5-4.22.77-1.27,1.54-2.53,2.46-3.7.71-.91,1.48-1.77,2.33-2.57.69-.65,1.4-1.26,2.29-1.56,1.15-.39,2.33-.42,3.51-.11,2.08.54,3.99,1.47,5.88,2.45,1.07.55,2.1,1.18,3.02,1.95,1.27,1.07,2.1,2.41,2.46,4.06.39,1.81-.05,3.5-.65,5.17-.44,1.23-.97,2.42-1.59,3.57-.29.55-.58,1.1-.94,1.62-.9,1.32-1.77,2.66-2.66,4-.08.13-.1.23,0,.36.95,1.2,1.52,2.58,1.71,4.09.08.67,0,1.36-.18,2.02-.35,1.31-1,2.49-1.63,3.68-.57,1.08-1.13,2.17-1.72,3.24-.36.65-.78,1.26-1.16,1.89-.33.53-.64,1.07-.96,1.61-.43.74-.84,1.48-1.27,2.21-.49.84-.98,1.68-1.47,2.51-.35.58-.7,1.16-1.06,1.74-.69,1.1-1.4,2.2-2.07,3.32-.53.89-1.76,1.37-2.82.75-1.05-.62-2.14-1.18-3.2-1.79-.75-.43-1.48-.89-2.23-1.32-.78-.46-1.56-.91-2.35-1.36-.69-.4-1.38-.81-2.07-1.2-.9-.51-1.81-1.01-2.71-1.53-.54-.31-1.08-.63-1.61-.96-1.12-.69-2.25-1.37-3.36-2.09-.54-.35-1.07-.71-1.59-1.08-.71-.5-1.44-.97-2.17-1.45-.57-.38-1.11-.79-1.71-1.18Zm25.96-28.41c-.73.86-1.25,1.87-1.82,2.85-.37.64-.77,1.27-1.11,1.94-.27.53-.59,1.04-.86,1.58-.07.14-.19.32.05.44,1.44.71,2.88,1.42,4.32,2.15.9.46,1.79.93,2.67,1.43.75.42,1.48.89,2.22,1.33.14.08.19.05.28-.08.7-1.17,1.41-2.35,2.13-3.51.65-1.04,1.34-2.05,1.97-3.1.28-.46.53-.95.6-1.51.21-1.58-.47-2.75-1.65-3.73-.66-.55-1.44-.92-2.16-1.36-.7-.43-1.43-.81-2.29-.9-.84-.08-1.63-.08-2.39.4-.84.53-1.43,1.27-1.98,2.08Zm-2.4,15.7c-.72-.6-1.51-.77-2.41-.46-.77.26-1.39.72-1.92,1.32-.51.57-.86,1.25-1.27,1.89-.21.33-.47.65-.64,1-.43.9-1.01,1.7-1.51,2.55-.41.7-.9,1.34-1.29,2.05-.6,1.09-1.31,2.11-1.96,3.17-.21.35-.19.61.14.85.69.51,1.49.86,2.21,1.33.8.52,1.6,1.03,2.43,1.49.29.16.72.09.81-.16.19-.59.53-1.09.89-1.57.32-.44.59-.92.89-1.37.69-1.06,1.29-2.19,2.01-3.24.2-.29.38-.6.57-.91.37-.59.68-1.22,1.05-1.81.37-.61.77-1.19,1.07-1.85.74-1.65.24-3.44-1.06-4.27Z"/><path class="cls-2" d="m387.7-10.78c-.66-.62-1.59-.97-2.15-1.79-.81-1.17-.78-2.36-.14-3.55.58-1.07,1.27-2.08,1.94-3.11,1.08-1.67,2.06-3.41,3.15-5.07.5-.77.98-1.55,1.49-2.31,1.3-1.96,2.53-3.97,3.84-5.93.35-.52.66-1.07,1.04-1.57,1.25-1.7,2.39-3.48,3.57-5.22.76-1.12,1.63-2.04,2.74-2.74,1.56-.99,3.31-1.24,5.12-1.17.32.01.67,0,.96.11.5.18.73-.08.93-.45,1.06-1.93,2.18-3.83,3.3-5.73,1.01-1.72,2.04-3.43,3.25-5.02.94-1.24,1.97-2.41,3.1-3.5.92-.89,1.86-1.72,3.06-2.14,1.54-.54,3.13-.6,4.72-.21,2.81.69,5.4,1.92,7.97,3.2,1.45.73,2.85,1.55,4.1,2.58,1.73,1.42,2.88,3.21,3.38,5.43.55,2.44,0,4.71-.78,6.98-.57,1.67-1.27,3.28-2.08,4.84-.39.74-.76,1.5-1.23,2.2-1.2,1.79-2.34,3.62-3.51,5.43-.11.17-.12.31.02.49,1.3,1.6,2.09,3.45,2.37,5.48.12.9.01,1.83-.21,2.73-.45,1.77-1.31,3.37-2.13,4.98-.75,1.47-1.48,2.94-2.26,4.39-.47.87-1.02,1.71-1.53,2.56-.43.72-.85,1.45-1.26,2.19-.56,1-1.11,2-1.67,3-.64,1.14-1.29,2.28-1.94,3.41-.46.79-.93,1.58-1.4,2.36-.92,1.5-1.84,2.99-2.72,4.51-.7,1.21-2.35,1.88-3.79,1.06-1.43-.81-2.9-1.56-4.34-2.36-1.02-.56-2.01-1.17-3.03-1.75-1.06-.6-2.12-1.19-3.18-1.79-.94-.53-1.87-1.06-2.81-1.58-1.22-.68-2.45-1.33-3.67-2.01-.74-.41-1.46-.83-2.19-1.27-1.52-.91-3.05-1.81-4.56-2.75-.73-.46-1.45-.94-2.16-1.43-.97-.66-1.96-1.28-2.94-1.91-.77-.5-1.5-1.05-2.32-1.56Zm34.48-38.71c-.96,1.17-1.65,2.54-2.4,3.87-.49.87-1.02,1.73-1.46,2.63-.36.72-.78,1.41-1.13,2.14-.09.18-.26.43.08.6,1.95.94,3.91,1.87,5.85,2.83,1.22.6,2.43,1.23,3.62,1.88,1.02.56,2.01,1.17,3.02,1.76.18.11.26.07.37-.12.93-1.59,1.86-3.19,2.82-4.77.85-1.41,1.77-2.79,2.6-4.21.36-.63.69-1.29.78-2.04.26-2.13-.68-3.7-2.28-4.99-.9-.73-1.95-1.21-2.94-1.8-.95-.57-1.95-1.07-3.1-1.17-1.13-.1-2.2-.08-3.21.57-1.12.73-1.9,1.74-2.62,2.84Zm-2.97,21.18c-.98-.79-2.04-1.01-3.25-.58-1.03.37-1.86,1-2.56,1.81-.67.78-1.14,1.7-1.68,2.56-.28.45-.63.88-.85,1.36-.56,1.22-1.34,2.3-1.99,3.46-.53.95-1.19,1.83-1.7,2.78-.79,1.48-1.73,2.87-2.58,4.3-.28.47-.24.82.2,1.14.94.68,2.02,1.13,2.99,1.75,1.08.69,2.17,1.36,3.3,1.96.4.21.98.11,1.08-.23.25-.8.7-1.47,1.18-2.14.43-.6.78-1.24,1.17-1.86.92-1.44,1.7-2.97,2.65-4.4.26-.4.51-.82.76-1.23.48-.81.9-1.65,1.39-2.46.49-.82,1.02-1.62,1.41-2.51.97-2.24.27-4.63-1.5-5.74Z"/><path class="cls-3" d="m401.68,46.76c-.49-.46-1.17-.73-1.58-1.35-.59-.88-.56-1.76-.07-2.64.44-.79.96-1.53,1.47-2.29.82-1.23,1.56-2.51,2.39-3.73.38-.56.74-1.14,1.13-1.7.98-1.45,1.91-2.92,2.9-4.36.26-.38.5-.79.78-1.16.95-1.25,1.8-2.56,2.7-3.84.57-.82,1.23-1.5,2.06-2.01,1.17-.72,2.47-.89,3.82-.82.24.01.49.01.71.09.37.14.54-.05.7-.32.81-1.42,1.66-2.82,2.5-4.22.77-1.27,1.54-2.53,2.46-3.7.71-.91,1.48-1.77,2.33-2.57.69-.65,1.4-1.26,2.29-1.56,1.15-.39,2.33-.42,3.51-.11,2.08.54,3.99,1.47,5.88,2.45,1.07.55,2.1,1.18,3.02,1.95,1.27,1.07,2.1,2.41,2.46,4.06.39,1.81-.05,3.5-.65,5.17-.44,1.23-.97,2.42-1.59,3.57-.29.55-.58,1.1-.94,1.62-.9,1.32-1.77,2.66-2.66,4-.08.13-.1.23,0,.36.95,1.2,1.52,2.58,1.71,4.09.08.67,0,1.36-.18,2.02-.35,1.31-1,2.49-1.63,3.68-.57,1.08-1.13,2.17-1.72,3.24-.36.65-.78,1.26-1.16,1.89-.33.53-.64,1.07-.96,1.61-.43.74-.84,1.48-1.27,2.21-.49.84-.98,1.68-1.47,2.51-.35.58-.7,1.16-1.06,1.74-.69,1.1-1.4,2.2-2.07,3.32-.53.89-1.76,1.37-2.82.75-1.05-.62-2.14-1.18-3.2-1.79-.75-.43-1.48-.89-2.23-1.32-.78-.46-1.56-.91-2.35-1.36-.69-.4-1.38-.81-2.07-1.2-.9-.51-1.81-1.01-2.71-1.53-.54-.31-1.08-.63-1.61-.96-1.12-.69-2.25-1.37-3.36-2.09-.54-.35-1.07-.71-1.59-1.08-.71-.5-1.44-.97-2.17-1.45-.57-.38-1.11-.79-1.71-1.18Zm25.96-28.41c-.73.86-1.25,1.87-1.82,2.85-.37.64-.77,1.27-1.11,1.94-.27.53-.59,1.04-.86,1.58-.07.14-.19.32.05.44,1.44.71,2.88,1.42,4.32,2.15.9.46,1.79.93,2.67,1.43.75.42,1.48.89,2.22,1.33.14.08.19.05.28-.08.7-1.17,1.41-2.35,2.13-3.51.65-1.04,1.34-2.05,1.97-3.1.28-.46.53-.95.6-1.51.21-1.58-.47-2.75-1.65-3.73-.66-.55-1.44-.92-2.16-1.36-.7-.43-1.43-.81-2.29-.9-.84-.08-1.63-.08-2.39.4-.84.53-1.43,1.27-1.98,2.08Zm-2.4,15.7c-.72-.6-1.51-.77-2.41-.46-.77.26-1.39.72-1.92,1.32-.51.57-.86,1.25-1.27,1.89-.21.33-.47.65-.64,1-.43.9-1.01,1.7-1.51,2.55-.41.7-.9,1.34-1.29,2.05-.6,1.09-1.31,2.11-1.96,3.17-.21.35-.19.61.14.85.69.51,1.49.86,2.21,1.33.8.52,1.6,1.03,2.43,1.49.29.16.72.09.81-.16.19-.59.53-1.09.89-1.57.32-.44.59-.92.89-1.37.69-1.06,1.29-2.19,2.01-3.24.2-.29.38-.6.57-.91.37-.59.68-1.22,1.05-1.81.37-.61.77-1.19,1.07-1.85.74-1.65.24-3.44-1.06-4.27Z"/><path class="cls-2" d="m25.03,243.6c-.31,1.64-.73,3.28-.92,4.94-.49,4.29-3.05,7.57-5.42,10.89-1.27,1.77-3.39,1.95-5.33,1.06-6.05-2.8-12.14-5.51-18.03-8.62-4.58-2.42-8.93-5.28-13.25-8.15-2.17-1.44-4.12-3.26-6.03-5.06-4.32-4.06-3.4-7.8.7-12.2,1.9-2.03,3.58-4.35,4.92-6.78,1.47-2.66-.06-4.94-3.15-5.07-1.47-.06-2.95.18-4.43.23-1,.03-2.03.09-3-.09-2.27-.43-3.16-2.35-2.11-4.41.55-1.08,1.26-2.08,1.8-3.17,1.47-2.98.28-5.46-3.04-5.55-3.4-.09-6.87.24-10.23.82-4.08.7-7.34-.67-10.1-3.37-9.84-9.62-13.23-21.47-11.56-34.9,1.4-11.25,5.88-21.23,13.01-30.03.51-.63.95-1.32,1.4-1.99.18-.27.32-.57.52-.94-2.59-2.33-5.67-3.43-8.9-4.19-2.18-.52-2.49-1.02-1.57-3.08,1.51-3.35,4.16-5.37,7.61-6.5.79-.26,1.98-.93,2.01-1.47.05-.69-.75-1.63-1.42-2.16-2.66-2.1-2.7-2.06-.27-4.55,6.46-6.59,13.7-12.18,21.58-16.97,1.35-.82,2.38-.87,3.65.11,2.35,1.81,4.77,3.56,7.25,5.18.66.43,1.68.3,2.54.43,0-.86.26-1.85-.08-2.55-1.03-2.2-2.26-4.3-3.47-6.41-.67-1.17-.57-2.04.72-2.63,3.31-1.5,6.62-2.99,9.98-4.51.9,2.21,1.63,4.16,2.49,6.05.2.45.81.72,1.23,1.07.08-.57.36-1.22.19-1.7-.64-1.84-1.43-3.64-2.26-5.69,4.8-1.53,9.59-2.39,14.53-2.03.57.04,1.22,1.1,1.56,1.82,2.12,4.46,4.16,8.96,6.22,13.44l.69-.25c-.35-5.23-.7-10.47-1.06-15.7-.19-2.75-.15-2.82,2.6-3.1,8.35-.84,16.58.08,24.75,1.77,1.29.27,1.67,1.01,1.97,2.18,1.19,4.56,2.45,9.11,3.84,13.62.22.71,1.23,1.17,1.87,1.75.48-.66,1.24-1.25,1.41-1.98,1.04-4.47,2.01-8.96,2.89-13.46.34-1.74,1.01-2.38,2.89-1.98,7.71,1.61,15.08,4.16,22.15,7.61,2.69,1.31,2.68,1.59,1.15,4.25-1.75,3.04-3.4,6.14-4.97,9.28-.28.56.05,1.43.1,2.16.78-.12,1.77.01,2.3-.42,2.83-2.29,5.56-4.7,8.29-7.11,1.24-1.1,2.29-.99,3.57,0,8.95,6.83,15.48,15.55,20.05,25.78.77,1.72.24,2.32-1.91,2.31-13.77-.05-25.79,4.62-36.15,13.58-2.44,2.11-4.5,4.64-6.73,6.99-.89.94-1.15,1.96-.84,3.32.55,2.43-.29,4.54-2.19,6.16-1.67,1.42-3.82,1.26-5.2-.45-.72-.88-1.26-1.91-1.8-2.92-12.13-22.59-30.91-34.1-56.66-34-1.32,0-2.44.24-3.31,1.49-5.73,8.19-11.66,16.25-16.1,25.26-6.4,12.99-9.88,26.57-7.9,41.13.99,7.3,3.68,14.07,7.48,20.38,6.97,11.56,16.47,20.81,26.82,29.25,3.07,2.51,6.39,4.77,9.83,6.74,3.43,1.96,7.15,3.41,10.79,5.11Zm9.05-164.67c-.37-.02-.75-.14-.84-.02-.28.34-.58.75-.63,1.17-.95,7.62-.85,15.23.4,22.81.08.48.6.89.91,1.33.22-.54.7-1.12.62-1.62-1.13-7.39-1.21-14.8-.36-22.22.05-.44-.05-.9-.09-1.45Zm59.97,37.43c.03-.25.16-.57.06-.74-.15-.24-.48-.53-.73-.53-.46.01-.92.2-1.35.36-6.04,2.27-11.6,5.4-16.68,9.38-.5.39-.64,1.24-.94,1.87.65-.19,1.42-.22,1.92-.61,5.01-3.85,10.44-6.93,16.35-9.15.44-.16.86-.37,1.37-.59Zm-31.4-18.6c.94-1.3.69-3.6-.81-3.96-1.44-.35-3.29.04-4.65.71-1.08.53-.29,3.36,1,4.22,1.46.98,3.35.57,4.47-.97Zm-84.57,37.03c.94-1.41.62-3.16-.75-4.05-1.35-.88-3.25-.52-4.1.79-1.17,1.78-1.07,3.4.27,4.27,1.55,1,3.53.57,4.58-1Zm-8.71-20.76c.72.03,1.19.05,1.66.07-.11-.53-.06-1.18-.36-1.58-2.8-3.8-5.63-7.57-8.51-11.3-.29-.37-.93-.47-1.41-.7,0,.49-.17,1.1.06,1.44,2.81,4.03,5.68,8.02,8.57,12.07Zm20.64-8.84c.71-1.72.19-3.93-1.1-4.87-1.42-1.04-2.26.11-3.02.94-.92,1-.82,4.25.11,4.41,1.28.21,2.67-.28,4.01-.47Zm110.09,12.07c1.33-1.97,1.31-3.73.13-4.12-.7-.23-1.95.17-2.49.74-1.12,1.17-1.02,3.44.05,3.75.82.24,1.86-.28,2.31-.37Zm-30.69,1.67c.85-.17,1.2-.14,1.34-.29,1.82-1.98,3.64-3.97,5.39-6.01.18-.21-.09-.8-.15-1.21-.4.14-.93.17-1.19.45-1.6,1.73-3.16,3.51-4.68,5.31-.29.35-.37.88-.71,1.75Zm-112.72-4.29c.47.01.95.02,1.43.03-.08-.47-.01-1.07-.28-1.39-1.28-1.56-2.62-3.07-4.01-4.53-.29-.31-.88-.34-1.33-.5.03.48-.13,1.1.11,1.41,1.26,1.65,2.63,3.23,4.09,4.98Zm71.72-23.52c-.29-2.33-.56-4.59-.89-6.84-.02-.15-.61-.36-.83-.28-.24.1-.54.51-.52.77.15,2.02.34,4.03.58,6.04.03.25.36.6.62.66.25.06.57-.18,1.04-.36Zm-39.68.93c.07-.53.21-.84.11-1.02-.84-1.6-1.7-3.19-2.61-4.74-.09-.16-.67-.19-.89-.06-.21.12-.41.63-.32.81.78,1.55,1.59,3.09,2.49,4.58.15.26.72.27,1.22.44Zm-13.06,50.81c-.4-1.5-.59-2.53-1.01-3.45-.06-.13-1.74.19-1.76.36-.07.99.03,2.04.33,2.98.07.2,1.19.07,2.43.11Zm79.38-34.75c.94-.25,1.82-.28,1.9-.55.2-.67.03-1.44,0-2.18-.53.11-1.33.05-1.51.36-.32.53-.25,1.29-.39,2.37Zm-85.24,38.53c-.39-.88-.5-1.69-.89-1.86-.43-.19-1.43.04-1.62.39-.22.4,0,1.37.38,1.65.34.26,1.13-.06,2.13-.18Zm19.8-37.84c-1.1.47-1.84.56-2.08.95-.27.45-.08,1.16-.09,1.77.57-.14,1.31-.1,1.66-.46.34-.34.27-1.07.51-2.26Zm66.71-6.65c-.28-.78-.34-1.52-.68-1.69-.38-.19-1.37.02-1.46.28-.18.48-.04,1.24.27,1.66.15.2.99-.11,1.87-.25Zm-63.55,5.89c-.33-.91-.38-1.69-.71-1.83-.46-.2-1.12.08-1.7.16.14.52.13,1.21.46,1.5.31.27.99.11,1.95.17Zm-21.24,28.92c-.93.48-1.65.63-1.91,1.06-.2.34.18,1.02.31,1.55.57-.18,1.3-.21,1.66-.59.25-.27,0-1.02-.06-2.02Z"/><path class="cls-3" d="m21.16,194.58c-2.43,3.21-5.2,5.93-8.97,7.41-5.21,2.06-10.21,1.68-14.27-2.34-3.09-3.05-6.11-6.35-8.35-10.03-5.78-9.53-2.73-18.63,7.45-23.04,4.24-1.84,8.76-2.77,13.41-2.65,11.25.3,17.36,7.92,15.51,19.23-.69,4.21-2.46,7.97-4.78,11.42Z"/><path class="cls-3" d="m57.06,220.62c-2.43,3.26-5.41,6.11-9.62,7.39-4.08,1.24-7.68.46-10.92-2.37-3.21-2.79-5.77-6.04-7.54-9.9-2.91-6.33-.99-13.12,4.88-16.82,4.62-2.92,9.75-4.34,15.2-4.23,8.72.18,13.75,6.33,12.42,14.95-.61,3.94-2.09,7.52-4.43,10.98Z"/><path class="cls-3" d="m7.65,215.3c2.35-2.85,6.22-5.03,10.23-7.01,1.32-.65,2.7-1.29,4.13-1.62,2.47-.57,4.17.39,4.33,2.91.19,3.19-.08,6.44-.47,9.63-.33,2.74-.96,5.46-1.72,8.11-1.17,4.05-5.41,5.31-7.92,2.34-.76-.9-.92-2.43-1.05-3.7-.19-1.9-.76-2.44-2.56-1.93-2.83.8-4.88.36-6.06-1.3-1.42-2-1.22-4.21,1.11-7.44Zm16.38-1.9c-.96.36-1.92.57-1.91.74.04,1.21.29,2.4.47,3.61.52-.09,1.48-.15,1.49-.28.08-1.22,0-2.44-.04-4.07Zm-2.31,8.66c.88-.27,1.64-.28,1.83-.62.2-.35.03-1.23-.29-1.48-.3-.23-1.22-.13-1.48.16-.27.3-.06,1.02-.06,1.94Z"/><path class="cls-2" d="m41.2,244.62c4.02-1.25,8.04-2.51,12.1-3.77-1.64,2.94-4,5.56-6.69,7.91.33-.41,1.01-.92.92-1.21-.27-.9-.73-1.78-1.32-2.5-.17-.2-1.5.19-1.5.27.05.87.1,1.8.47,2.56.21.44,1.01.59,1.54.87-2.47,2.03-5.13,3.16-8.34,1.83-2.48-1.02-3.23-3.38-4.56-5.53,2.67-.16,5.06-.3,7.46-.44-.77.63-1.5,1.37-.55,2.28.3.29,1.31.22,1.72-.08.97-.71.42-1.65-1.24-2.19Z"/><path class="cls-2" d="m61.95,153.84c6.52,3.04,9.65,36.9,4.22,42.56,3.09-14.46,2.25-28.54-4.22-42.56Z"/><path class="cls-2" d="m39.48,132.8c-.75-.44-1.58-.8-2.25-1.35-6.67-5.52-14.03-9.83-22.31-12.38-2.81-.87-5.81-1.14-8.72-1.67-.57-.1-1.15-.15-1.73-.22-.04-.23-.08-.47-.12-.7.62-.13,1.3-.47,1.87-.34,4.77,1.11,9.69,1.87,14.25,3.58,6.52,2.45,12.29,6.42,17.74,10.77.47.38.88.83,1.3,1.27.13.13.17.34.26.51-.09.17-.19.35-.28.52Z"/><path class="cls-2" d="m35.65,134.17c-5.55-3.43-11.1-6.87-16.84-10.42,2.33-.66,15.57,7.34,16.84,10.42Z"/><path class="cls-2" d="m58.39,224.13c-.99,5.28-3.54,9.82-6.81,14.01l-.71-.35c1.25-2.25,2.63-4.44,3.73-6.76,1.12-2.36,1.97-4.85,2.93-7.28.29.12.58.25.87.37Z"/><path class="cls-2" d="m63.51,178.61c-.69-3.38-1.39-6.77-2.08-10.15,1.86.85,3.46,8.18,2.77,10.02-.23.04-.46.09-.69.13Z"/><path class="cls-2" d="m41.8,137.31c1.77-.08,4.82,2.51,5.7,4.79-2.74-.97-3.94-3.21-5.7-4.79Z"/><path class="cls-2" d="m58.27,177.77c.03-1.09.06-2.18.09-3.27.25,0,.49,0,.74,0,.74,1.08.69,2.18-.11,3.31-.24-.01-.48-.02-.72-.03Z"/><path class="cls-2" d="m79.39,188.98c-.66-.62-1.59-.97-2.15-1.79-.81-1.17-.78-2.36-.14-3.55.58-1.07,1.27-2.08,1.94-3.11,1.08-1.67,2.06-3.41,3.15-5.07.5-.77.98-1.55,1.49-2.31,1.3-1.96,2.53-3.97,3.84-5.93.35-.52.66-1.07,1.04-1.57,1.25-1.7,2.39-3.48,3.57-5.22.76-1.12,1.63-2.04,2.74-2.74,1.56-.99,3.31-1.24,5.12-1.17.32.01.67,0,.96.11.5.18.73-.08.93-.45,1.06-1.93,2.18-3.83,3.3-5.73,1.01-1.72,2.04-3.43,3.25-5.02.94-1.24,1.97-2.41,3.1-3.5.92-.89,1.86-1.72,3.06-2.14,1.54-.54,3.13-.6,4.72-.21,2.81.69,5.4,1.92,7.97,3.2,1.45.73,2.85,1.55,4.1,2.58,1.73,1.42,2.88,3.21,3.38,5.43.55,2.44,0,4.71-.78,6.98-.57,1.67-1.27,3.28-2.08,4.84-.39.74-.76,1.5-1.23,2.2-1.2,1.79-2.34,3.62-3.51,5.43-.11.17-.12.31.02.49,1.3,1.6,2.09,3.45,2.37,5.48.12.9.01,1.83-.21,2.73-.45,1.77-1.31,3.37-2.13,4.98-.75,1.47-1.48,2.94-2.26,4.39-.47.87-1.02,1.71-1.53,2.56-.43.72-.85,1.45-1.26,2.19-.56,1-1.11,2-1.67,3-.64,1.14-1.29,2.28-1.94,3.41-.46.79-.93,1.58-1.4,2.36-.92,1.5-1.84,2.99-2.72,4.51-.7,1.21-2.35,1.88-3.79,1.06-1.43-.81-2.9-1.56-4.34-2.36-1.02-.56-2.01-1.17-3.03-1.75-1.06-.6-2.12-1.19-3.18-1.79-.94-.53-1.87-1.06-2.81-1.58-1.22-.68-2.45-1.33-3.67-2.01-.74-.41-1.46-.83-2.19-1.27-1.52-.91-3.05-1.81-4.56-2.75-.73-.46-1.45-.94-2.16-1.43-.97-.66-1.96-1.28-2.94-1.91-.77-.5-1.5-1.05-2.32-1.56Zm34.48-38.71c-.96,1.17-1.65,2.54-2.4,3.87-.49.87-1.02,1.73-1.46,2.63-.36.72-.78,1.41-1.13,2.14-.09.18-.26.43.08.6,1.95.94,3.91,1.87,5.85,2.83,1.22.6,2.43,1.23,3.62,1.88,1.02.56,2.01,1.17,3.02,1.76.18.11.26.07.37-.12.93-1.59,1.86-3.19,2.82-4.77.85-1.41,1.77-2.79,2.6-4.21.36-.63.69-1.29.78-2.04.26-2.13-.68-3.7-2.28-4.99-.9-.73-1.95-1.21-2.94-1.8-.95-.57-1.95-1.07-3.1-1.17-1.13-.1-2.2-.08-3.21.57-1.12.73-1.9,1.74-2.62,2.84Zm-2.97,21.18c-.98-.79-2.04-1.01-3.25-.58-1.03.37-1.86,1-2.56,1.81-.67.78-1.14,1.7-1.68,2.56-.28.45-.63.88-.85,1.36-.56,1.22-1.34,2.3-1.99,3.46-.53.95-1.19,1.83-1.7,2.78-.79,1.48-1.73,2.87-2.58,4.3-.28.47-.24.82.2,1.14.94.68,2.02,1.13,2.99,1.75,1.08.69,2.17,1.36,3.3,1.96.4.21.98.11,1.08-.23.25-.8.7-1.47,1.18-2.14.43-.6.78-1.24,1.17-1.86.92-1.44,1.7-2.97,2.65-4.4.26-.4.51-.82.76-1.23.48-.81.9-1.65,1.39-2.46.49-.82,1.02-1.62,1.41-2.51.97-2.24.27-4.63-1.5-5.74Z"/><path class="cls-2" d="m230.57,243.6c-.31,1.64-.73,3.28-.92,4.94-.49,4.29-3.05,7.57-5.42,10.89-1.27,1.77-3.39,1.95-5.33,1.06-6.05-2.8-12.14-5.51-18.03-8.62-4.58-2.42-8.93-5.28-13.25-8.15-2.17-1.44-4.12-3.26-6.03-5.06-4.32-4.06-3.4-7.8.7-12.2,1.9-2.03,3.58-4.35,4.92-6.78,1.47-2.66-.06-4.94-3.15-5.07-1.47-.06-2.95.18-4.43.23-1,.03-2.03.09-3-.09-2.27-.43-3.16-2.35-2.11-4.41.55-1.08,1.26-2.08,1.8-3.17,1.47-2.98.28-5.46-3.04-5.55-3.4-.09-6.87.24-10.23.82-4.08.7-7.34-.67-10.1-3.37-9.84-9.62-13.23-21.47-11.56-34.9,1.4-11.25,5.88-21.23,13.01-30.03.51-.63.95-1.32,1.4-1.99.18-.27.32-.57.52-.94-2.59-2.33-5.67-3.43-8.9-4.19-2.18-.52-2.49-1.02-1.57-3.08,1.51-3.35,4.16-5.37,7.61-6.5.79-.26,1.98-.93,2.01-1.47.05-.69-.75-1.63-1.42-2.16-2.66-2.1-2.7-2.06-.27-4.55,6.46-6.59,13.7-12.18,21.58-16.97,1.35-.82,2.38-.87,3.65.11,2.35,1.81,4.77,3.56,7.25,5.18.66.43,1.68.3,2.54.43,0-.86.26-1.85-.08-2.55-1.03-2.2-2.26-4.3-3.47-6.41-.67-1.17-.57-2.04.72-2.63,3.31-1.5,6.62-2.99,9.98-4.51.9,2.21,1.63,4.16,2.49,6.05.2.45.81.72,1.23,1.07.08-.57.36-1.22.19-1.7-.64-1.84-1.43-3.64-2.26-5.69,4.8-1.53,9.59-2.39,14.53-2.03.57.04,1.22,1.1,1.56,1.82,2.12,4.46,4.16,8.96,6.22,13.44l.69-.25c-.35-5.23-.7-10.47-1.06-15.7-.19-2.75-.15-2.82,2.6-3.1,8.35-.84,16.58.08,24.75,1.77,1.29.27,1.67,1.01,1.97,2.18,1.19,4.56,2.45,9.11,3.84,13.62.22.71,1.23,1.17,1.87,1.75.48-.66,1.24-1.25,1.41-1.98,1.04-4.47,2.01-8.96,2.89-13.46.34-1.74,1.01-2.38,2.89-1.98,7.71,1.61,15.08,4.16,22.15,7.61,2.69,1.31,2.68,1.59,1.15,4.25-1.75,3.04-3.4,6.14-4.97,9.28-.28.56.05,1.43.1,2.16.78-.12,1.77.01,2.3-.42,2.83-2.29,5.56-4.7,8.29-7.11,1.24-1.1,2.29-.99,3.57,0,8.95,6.83,15.48,15.55,20.05,25.78.77,1.72.24,2.32-1.91,2.31-13.77-.05-25.79,4.62-36.15,13.58-2.44,2.11-4.5,4.64-6.73,6.99-.89.94-1.15,1.96-.84,3.32.55,2.43-.29,4.54-2.19,6.16-1.67,1.42-3.82,1.26-5.2-.45-.72-.88-1.26-1.91-1.8-2.92-12.13-22.59-30.91-34.1-56.66-34-1.32,0-2.44.24-3.31,1.49-5.73,8.19-11.66,16.25-16.1,25.26-6.4,12.99-9.88,26.57-7.9,41.13.99,7.3,3.68,14.07,7.48,20.38,6.97,11.56,16.47,20.81,26.82,29.25,3.07,2.51,6.39,4.77,9.83,6.74,3.43,1.96,7.15,3.41,10.79,5.11Zm9.05-164.67c-.37-.02-.75-.14-.84-.02-.28.34-.58.75-.63,1.17-.95,7.62-.85,15.23.4,22.81.08.48.6.89.91,1.33.22-.54.7-1.12.62-1.62-1.13-7.39-1.21-14.8-.36-22.22.05-.44-.05-.9-.09-1.45Zm59.97,37.43c.03-.25.16-.57.06-.74-.15-.24-.48-.53-.73-.53-.46.01-.92.2-1.35.36-6.04,2.27-11.6,5.4-16.68,9.38-.5.39-.64,1.24-.94,1.87.65-.19,1.42-.22,1.92-.61,5.01-3.85,10.44-6.93,16.35-9.15.44-.16.86-.37,1.37-.59Zm-31.4-18.6c.94-1.3.69-3.6-.81-3.96-1.44-.35-3.29.04-4.65.71-1.08.53-.29,3.36,1,4.22,1.46.98,3.35.57,4.47-.97Zm-84.57,37.03c.94-1.41.62-3.16-.75-4.05-1.35-.88-3.25-.52-4.1.79-1.17,1.78-1.07,3.4.27,4.27,1.55,1,3.53.57,4.58-1Zm-8.71-20.76c.72.03,1.19.05,1.66.07-.11-.53-.06-1.18-.36-1.58-2.8-3.8-5.63-7.57-8.51-11.3-.29-.37-.93-.47-1.41-.7,0,.49-.17,1.1.06,1.44,2.81,4.03,5.68,8.02,8.57,12.07Zm20.64-8.84c.71-1.72.19-3.93-1.1-4.87-1.42-1.04-2.26.11-3.02.94-.92,1-.82,4.25.11,4.41,1.28.21,2.67-.28,4.01-.47Zm110.09,12.07c1.33-1.97,1.31-3.73.13-4.12-.7-.23-1.95.17-2.49.74-1.12,1.17-1.02,3.44.05,3.75.82.24,1.86-.28,2.31-.37Zm-30.69,1.67c.85-.17,1.2-.14,1.34-.29,1.82-1.98,3.64-3.97,5.39-6.01.18-.21-.09-.8-.15-1.21-.4.14-.93.17-1.19.45-1.6,1.73-3.16,3.51-4.68,5.31-.29.35-.37.88-.71,1.75Zm-112.72-4.29c.47.01.95.02,1.43.03-.08-.47-.01-1.07-.28-1.39-1.28-1.56-2.62-3.07-4.01-4.53-.29-.31-.88-.34-1.33-.5.03.48-.13,1.1.11,1.41,1.26,1.65,2.63,3.23,4.09,4.98Zm71.72-23.52c-.29-2.33-.56-4.59-.89-6.84-.02-.15-.61-.36-.83-.28-.24.1-.54.51-.52.77.15,2.02.34,4.03.58,6.04.03.25.36.6.62.66.25.06.57-.18,1.04-.36Zm-39.68.93c.07-.53.21-.84.11-1.02-.84-1.6-1.7-3.19-2.61-4.74-.09-.16-.67-.19-.89-.06-.21.12-.41.63-.32.81.78,1.55,1.59,3.09,2.49,4.58.15.26.72.27,1.22.44Zm-13.06,50.81c-.4-1.5-.59-2.53-1.01-3.45-.06-.13-1.74.19-1.76.36-.07.99.03,2.04.33,2.98.07.2,1.19.07,2.43.11Zm79.38-34.75c.94-.25,1.82-.28,1.9-.55.2-.67.03-1.44,0-2.18-.53.11-1.33.05-1.51.36-.32.53-.25,1.29-.39,2.37Zm-85.24,38.53c-.39-.88-.5-1.69-.89-1.86-.43-.19-1.43.04-1.62.39-.22.4,0,1.37.38,1.65.34.26,1.13-.06,2.13-.18Zm19.8-37.84c-1.1.47-1.84.56-2.08.95-.27.45-.08,1.16-.09,1.77.57-.14,1.31-.1,1.66-.46.34-.34.27-1.07.51-2.26Zm66.71-6.65c-.28-.78-.34-1.52-.68-1.69-.38-.19-1.37.02-1.46.28-.18.48-.04,1.24.27,1.66.15.2.99-.11,1.87-.25Zm-63.55,5.89c-.33-.91-.38-1.69-.71-1.83-.46-.2-1.12.08-1.7.16.14.52.13,1.21.46,1.5.31.27.99.11,1.95.17Zm-21.24,28.92c-.93.48-1.65.63-1.91,1.06-.2.34.18,1.02.31,1.55.57-.18,1.3-.21,1.66-.59.25-.27,0-1.02-.06-2.02Z"/><path class="cls-3" d="m226.7,194.58c-2.43,3.21-5.2,5.93-8.97,7.41-5.21,2.06-10.21,1.68-14.27-2.34-3.09-3.05-6.11-6.35-8.35-10.03-5.78-9.53-2.73-18.63,7.45-23.04,4.24-1.84,8.76-2.77,13.41-2.65,11.25.3,17.36,7.92,15.51,19.23-.69,4.21-2.46,7.97-4.78,11.42Z"/><path class="cls-3" d="m262.59,220.62c-2.43,3.26-5.41,6.11-9.62,7.39-4.08,1.24-7.68.46-10.92-2.37-3.21-2.79-5.77-6.04-7.54-9.9-2.91-6.33-.99-13.12,4.88-16.82,4.62-2.92,9.75-4.34,15.2-4.23,8.72.18,13.75,6.33,12.42,14.95-.61,3.94-2.09,7.52-4.43,10.98Z"/><path class="cls-3" d="m213.19,215.3c2.35-2.85,6.22-5.03,10.23-7.01,1.32-.65,2.7-1.29,4.13-1.62,2.47-.57,4.17.39,4.33,2.91.19,3.19-.08,6.44-.47,9.63-.33,2.74-.96,5.46-1.72,8.11-1.17,4.05-5.41,5.31-7.92,2.34-.76-.9-.92-2.43-1.05-3.7-.19-1.9-.76-2.44-2.56-1.93-2.83.8-4.88.36-6.06-1.3-1.42-2-1.22-4.21,1.11-7.44Zm16.38-1.9c-.96.36-1.92.57-1.91.74.04,1.21.29,2.4.47,3.61.52-.09,1.48-.15,1.49-.28.08-1.22,0-2.44-.04-4.07Zm-2.31,8.66c.88-.27,1.64-.28,1.83-.62.2-.35.03-1.23-.29-1.48-.3-.23-1.22-.13-1.48.16-.27.3-.06,1.02-.06,1.94Z"/><path class="cls-2" d="m246.74,244.62c4.02-1.25,8.04-2.51,12.1-3.77-1.64,2.94-4,5.56-6.69,7.91.33-.41,1.01-.92.92-1.21-.27-.9-.73-1.78-1.32-2.5-.17-.2-1.5.19-1.5.27.05.87.1,1.8.47,2.56.21.44,1.01.59,1.54.87-2.47,2.03-5.13,3.16-8.34,1.83-2.48-1.02-3.23-3.38-4.56-5.53,2.67-.16,5.06-.3,7.46-.44-.77.63-1.5,1.37-.55,2.28.3.29,1.31.22,1.72-.08.97-.71.42-1.65-1.24-2.19Z"/><path class="cls-2" d="m267.49,153.84c6.52,3.04,9.65,36.9,4.22,42.56,3.09-14.46,2.25-28.54-4.22-42.56Z"/><path class="cls-2" d="m245.02,132.8c-.75-.44-1.58-.8-2.25-1.35-6.67-5.52-14.03-9.83-22.31-12.38-2.81-.87-5.81-1.14-8.72-1.67-.57-.1-1.15-.15-1.73-.22-.04-.23-.08-.47-.12-.7.62-.13,1.3-.47,1.87-.34,4.77,1.11,9.69,1.87,14.25,3.58,6.52,2.45,12.29,6.42,17.74,10.77.47.38.88.83,1.3,1.27.13.13.17.34.26.51-.09.17-.19.35-.28.52Z"/><path class="cls-2" d="m241.19,134.17c-5.55-3.43-11.1-6.87-16.84-10.42,2.33-.66,15.57,7.34,16.84,10.42Z"/><path class="cls-2" d="m263.93,224.13c-.99,5.28-3.54,9.82-6.81,14.01l-.71-.35c1.25-2.25,2.63-4.44,3.73-6.76,1.12-2.36,1.97-4.85,2.93-7.28.29.12.58.25.87.37Z"/><path class="cls-2" d="m269.04,178.61c-.69-3.38-1.39-6.77-2.08-10.15,1.86.85,3.46,8.18,2.77,10.02-.23.04-.46.09-.69.13Z"/><path class="cls-2" d="m247.33,137.31c1.77-.08,4.82,2.51,5.7,4.79-2.74-.97-3.94-3.21-5.7-4.79Z"/><path class="cls-2" d="m263.81,177.77c.03-1.09.06-2.18.09-3.27.25,0,.49,0,.74,0,.74,1.08.69,2.18-.11,3.31-.24-.01-.48-.02-.72-.03Z"/><path class="cls-3" d="m93.38,246.52c-.49-.46-1.17-.73-1.58-1.35-.59-.88-.56-1.76-.07-2.64.44-.79.96-1.53,1.47-2.29.82-1.23,1.56-2.51,2.39-3.73.38-.56.74-1.14,1.13-1.7.98-1.45,1.91-2.92,2.9-4.36.26-.38.5-.79.78-1.16.95-1.25,1.8-2.56,2.7-3.84.57-.82,1.23-1.5,2.06-2.01,1.17-.72,2.47-.89,3.82-.82.24.01.49.01.71.09.37.14.54-.05.7-.32.81-1.42,1.66-2.82,2.5-4.22.77-1.27,1.54-2.53,2.46-3.7.71-.91,1.48-1.77,2.33-2.57.69-.65,1.4-1.26,2.29-1.56,1.15-.39,2.33-.42,3.51-.11,2.08.54,3.99,1.47,5.88,2.45,1.07.55,2.1,1.18,3.02,1.95,1.27,1.07,2.1,2.41,2.46,4.06.39,1.81-.05,3.5-.65,5.17-.44,1.23-.97,2.42-1.59,3.57-.29.55-.58,1.1-.94,1.62-.9,1.32-1.77,2.66-2.66,4-.08.13-.1.23,0,.36.95,1.2,1.52,2.58,1.71,4.09.08.67,0,1.36-.18,2.02-.35,1.31-1,2.49-1.63,3.68-.57,1.08-1.13,2.17-1.72,3.24-.36.65-.78,1.26-1.16,1.89-.33.53-.64,1.07-.96,1.61-.43.74-.84,1.48-1.27,2.21-.49.84-.98,1.68-1.47,2.51-.35.58-.7,1.16-1.06,1.74-.69,1.1-1.4,2.2-2.07,3.32-.53.89-1.76,1.37-2.82.75-1.05-.62-2.14-1.18-3.2-1.79-.75-.43-1.48-.89-2.23-1.32-.78-.46-1.56-.91-2.35-1.36-.69-.4-1.38-.81-2.07-1.2-.9-.51-1.81-1.01-2.71-1.53-.54-.31-1.08-.63-1.61-.96-1.12-.69-2.25-1.37-3.36-2.09-.54-.35-1.07-.71-1.59-1.08-.71-.5-1.44-.97-2.17-1.45-.57-.38-1.11-.79-1.71-1.18Zm25.96-28.41c-.73.86-1.25,1.87-1.82,2.85-.37.64-.77,1.27-1.11,1.94-.27.53-.59,1.04-.86,1.58-.07.14-.19.32.05.44,1.44.71,2.88,1.42,4.32,2.15.9.46,1.79.93,2.67,1.43.75.42,1.48.89,2.22,1.33.14.08.19.05.28-.08.7-1.17,1.41-2.35,2.13-3.51.65-1.04,1.34-2.05,1.97-3.1.28-.46.53-.95.6-1.51.21-1.58-.47-2.75-1.65-3.73-.66-.55-1.44-.92-2.16-1.36-.7-.43-1.43-.81-2.29-.9-.84-.08-1.63-.08-2.39.4-.84.53-1.43,1.27-1.98,2.08Zm-2.4,15.7c-.72-.6-1.51-.77-2.41-.46-.77.26-1.39.72-1.92,1.32-.51.57-.86,1.25-1.27,1.89-.21.33-.47.65-.64,1-.43.9-1.01,1.7-1.51,2.55-.41.7-.9,1.34-1.29,2.05-.6,1.09-1.31,2.11-1.96,3.17-.21.35-.19.61.14.85.69.51,1.49.86,2.21,1.33.8.52,1.6,1.03,2.43,1.49.29.16.72.09.81-.16.19-.59.53-1.09.89-1.57.32-.44.59-.92.89-1.37.69-1.06,1.29-2.19,2.01-3.24.2-.29.38-.6.57-.91.37-.59.68-1.22,1.05-1.81.37-.61.77-1.19,1.07-1.85.74-1.65.24-3.44-1.06-4.27Z"/><path class="cls-2" d="m284.93,188.98c-.66-.62-1.59-.97-2.15-1.79-.81-1.17-.78-2.36-.14-3.55.58-1.07,1.27-2.08,1.94-3.11,1.08-1.67,2.06-3.41,3.15-5.07.5-.77.98-1.55,1.49-2.31,1.3-1.96,2.53-3.97,3.84-5.93.35-.52.66-1.07,1.04-1.57,1.25-1.7,2.39-3.48,3.57-5.22.76-1.12,1.63-2.04,2.74-2.74,1.56-.99,3.31-1.24,5.12-1.17.32.01.67,0,.96.11.5.18.73-.08.93-.45,1.06-1.93,2.18-3.83,3.3-5.73,1.01-1.72,2.04-3.43,3.25-5.02.94-1.24,1.97-2.41,3.1-3.5.92-.89,1.86-1.72,3.06-2.14,1.54-.54,3.13-.6,4.72-.21,2.81.69,5.4,1.92,7.97,3.2,1.45.73,2.85,1.55,4.1,2.58,1.73,1.42,2.88,3.21,3.38,5.43.55,2.44,0,4.71-.78,6.98-.57,1.67-1.27,3.28-2.08,4.84-.39.74-.76,1.5-1.23,2.2-1.2,1.79-2.34,3.62-3.51,5.43-.11.17-.12.31.02.49,1.3,1.6,2.09,3.45,2.37,5.48.12.9.01,1.83-.21,2.73-.45,1.77-1.31,3.37-2.13,4.98-.75,1.47-1.48,2.94-2.26,4.39-.47.87-1.02,1.71-1.53,2.56-.43.72-.85,1.45-1.26,2.19-.56,1-1.11,2-1.67,3-.64,1.14-1.29,2.28-1.94,3.41-.46.79-.93,1.58-1.4,2.36-.92,1.5-1.84,2.99-2.72,4.51-.7,1.21-2.35,1.88-3.79,1.06-1.43-.81-2.9-1.56-4.34-2.36-1.02-.56-2.01-1.17-3.03-1.75-1.06-.6-2.12-1.19-3.18-1.79-.94-.53-1.87-1.06-2.81-1.58-1.22-.68-2.45-1.33-3.67-2.01-.74-.41-1.46-.83-2.19-1.27-1.52-.91-3.05-1.81-4.56-2.75-.73-.46-1.45-.94-2.16-1.43-.97-.66-1.96-1.28-2.94-1.91-.77-.5-1.5-1.05-2.32-1.56Zm34.48-38.71c-.96,1.17-1.65,2.54-2.4,3.87-.49.87-1.02,1.73-1.46,2.63-.36.72-.78,1.41-1.13,2.14-.09.18-.26.43.08.6,1.95.94,3.91,1.87,5.85,2.83,1.22.6,2.43,1.23,3.62,1.88,1.02.56,2.01,1.17,3.02,1.76.18.11.26.07.37-.12.93-1.59,1.86-3.19,2.82-4.77.85-1.41,1.77-2.79,2.6-4.21.36-.63.69-1.29.78-2.04.26-2.13-.68-3.7-2.28-4.99-.9-.73-1.95-1.21-2.94-1.8-.95-.57-1.95-1.07-3.1-1.17-1.13-.1-2.2-.08-3.21.57-1.12.73-1.9,1.74-2.62,2.84Zm-2.97,21.18c-.98-.79-2.04-1.01-3.25-.58-1.03.37-1.86,1-2.56,1.81-.67.78-1.14,1.7-1.68,2.56-.28.45-.63.88-.85,1.36-.56,1.22-1.34,2.3-1.99,3.46-.53.95-1.19,1.83-1.7,2.78-.79,1.48-1.73,2.87-2.58,4.3-.28.47-.24.82.2,1.14.94.68,2.02,1.13,2.99,1.75,1.08.69,2.17,1.36,3.3,1.96.4.21.98.11,1.08-.23.25-.8.7-1.47,1.18-2.14.43-.6.78-1.24,1.17-1.86.92-1.44,1.7-2.97,2.65-4.4.26-.4.51-.82.76-1.23.48-.81.9-1.65,1.39-2.46.49-.82,1.02-1.62,1.41-2.51.97-2.24.27-4.63-1.5-5.74Z"/><path class="cls-2" d="m436.1,243.6c-.31,1.64-.73,3.28-.92,4.94-.49,4.29-3.05,7.57-5.42,10.89-1.27,1.77-3.39,1.95-5.33,1.06-6.05-2.8-12.14-5.51-18.03-8.62-4.58-2.42-8.93-5.28-13.25-8.15-2.17-1.44-4.12-3.26-6.03-5.06-4.32-4.06-3.4-7.8.7-12.2,1.9-2.03,3.58-4.35,4.92-6.78,1.47-2.66-.06-4.94-3.15-5.07-1.47-.06-2.95.18-4.43.23-1,.03-2.03.09-3-.09-2.27-.43-3.16-2.35-2.11-4.41.55-1.08,1.26-2.08,1.8-3.17,1.47-2.98.28-5.46-3.04-5.55-3.4-.09-6.87.24-10.23.82-4.08.7-7.34-.67-10.1-3.37-9.84-9.62-13.23-21.47-11.56-34.9,1.4-11.25,5.88-21.23,13.01-30.03.51-.63.95-1.32,1.4-1.99.18-.27.32-.57.52-.94-2.59-2.33-5.67-3.43-8.9-4.19-2.18-.52-2.49-1.02-1.57-3.08,1.51-3.35,4.16-5.37,7.61-6.5.79-.26,1.98-.93,2.01-1.47.05-.69-.75-1.63-1.42-2.16-2.66-2.1-2.7-2.06-.27-4.55,6.46-6.59,13.7-12.18,21.58-16.97,1.35-.82,2.38-.87,3.65.11,2.35,1.81,4.77,3.56,7.25,5.18.66.43,1.68.3,2.54.43,0-.86.26-1.85-.08-2.55-1.03-2.2-2.26-4.3-3.47-6.41-.67-1.17-.57-2.04.72-2.63,3.31-1.5,6.62-2.99,9.98-4.51.9,2.21,1.63,4.16,2.49,6.05.2.45.81.72,1.23,1.07.08-.57.36-1.22.19-1.7-.64-1.84-1.43-3.64-2.26-5.69,4.8-1.53,9.59-2.39,14.53-2.03.57.04,1.22,1.1,1.56,1.82,2.12,4.46,4.16,8.96,6.22,13.44l.69-.25c-.35-5.23-.7-10.47-1.06-15.7-.19-2.75-.15-2.82,2.6-3.1,8.35-.84,16.58.08,24.75,1.77,1.29.27,1.67,1.01,1.97,2.18,1.19,4.56,2.45,9.11,3.84,13.62.22.71,1.23,1.17,1.87,1.75.48-.66,1.24-1.25,1.41-1.98,1.04-4.47,2.01-8.96,2.89-13.46.34-1.74,1.01-2.38,2.89-1.98,7.71,1.61,15.08,4.16,22.15,7.61,2.69,1.31,2.68,1.59,1.15,4.25-1.75,3.04-3.4,6.14-4.97,9.28-.28.56.05,1.43.1,2.16.78-.12,1.77.01,2.3-.42,2.83-2.29,5.56-4.7,8.29-7.11,1.24-1.1,2.29-.99,3.57,0,8.95,6.83,15.48,15.55,20.05,25.78.77,1.72.24,2.32-1.91,2.31-13.77-.05-25.79,4.62-36.15,13.58-2.44,2.11-4.5,4.64-6.73,6.99-.89.94-1.15,1.96-.84,3.32.55,2.43-.29,4.54-2.19,6.16-1.67,1.42-3.82,1.26-5.2-.45-.72-.88-1.26-1.91-1.8-2.92-12.13-22.59-30.91-34.1-56.66-34-1.32,0-2.44.24-3.31,1.49-5.73,8.19-11.66,16.25-16.1,25.26-6.4,12.99-9.88,26.57-7.9,41.13.99,7.3,3.68,14.07,7.48,20.38,6.97,11.56,16.47,20.81,26.82,29.25,3.07,2.51,6.39,4.77,9.83,6.74,3.43,1.96,7.15,3.41,10.79,5.11Zm9.05-164.67c-.37-.02-.75-.14-.84-.02-.28.34-.58.75-.63,1.17-.95,7.62-.85,15.23.4,22.81.08.48.6.89.91,1.33.22-.54.7-1.12.62-1.62-1.13-7.39-1.21-14.8-.36-22.22.05-.44-.05-.9-.09-1.45Zm59.97,37.43c.03-.25.16-.57.06-.74-.15-.24-.48-.53-.73-.53-.46.01-.92.2-1.35.36-6.04,2.27-11.6,5.4-16.68,9.38-.5.39-.64,1.24-.94,1.87.65-.19,1.42-.22,1.92-.61,5.01-3.85,10.44-6.93,16.35-9.15.44-.16.86-.37,1.37-.59Zm-31.4-18.6c.94-1.3.69-3.6-.81-3.96-1.44-.35-3.29.04-4.65.71-1.08.53-.29,3.36,1,4.22,1.46.98,3.35.57,4.47-.97Zm-84.57,37.03c.94-1.41.62-3.16-.75-4.05-1.35-.88-3.25-.52-4.1.79-1.17,1.78-1.07,3.4.27,4.27,1.55,1,3.53.57,4.58-1Zm-8.71-20.76c.72.03,1.19.05,1.66.07-.11-.53-.06-1.18-.36-1.58-2.8-3.8-5.63-7.57-8.51-11.3-.29-.37-.93-.47-1.41-.7,0,.49-.17,1.1.06,1.44,2.81,4.03,5.68,8.02,8.57,12.07Zm20.64-8.84c.71-1.72.19-3.93-1.1-4.87-1.42-1.04-2.26.11-3.02.94-.92,1-.82,4.25.11,4.41,1.28.21,2.67-.28,4.01-.47Zm110.09,12.07c1.33-1.97,1.31-3.73.13-4.12-.7-.23-1.95.17-2.49.74-1.12,1.17-1.02,3.44.05,3.75.82.24,1.86-.28,2.31-.37Zm-30.69,1.67c.85-.17,1.2-.14,1.34-.29,1.82-1.98,3.64-3.97,5.39-6.01.18-.21-.09-.8-.15-1.21-.4.14-.93.17-1.19.45-1.6,1.73-3.16,3.51-4.68,5.31-.29.35-.37.88-.71,1.75Zm-112.72-4.29c.47.01.95.02,1.43.03-.08-.47-.01-1.07-.28-1.39-1.28-1.56-2.62-3.07-4.01-4.53-.29-.31-.88-.34-1.33-.5.03.48-.13,1.1.11,1.41,1.26,1.65,2.63,3.23,4.09,4.98Zm71.72-23.52c-.29-2.33-.56-4.59-.89-6.84-.02-.15-.61-.36-.83-.28-.24.1-.54.51-.52.77.15,2.02.34,4.03.58,6.04.03.25.36.6.62.66.25.06.57-.18,1.04-.36Zm-39.68.93c.07-.53.21-.84.11-1.02-.84-1.6-1.7-3.19-2.61-4.74-.09-.16-.67-.19-.89-.06-.21.12-.41.63-.32.81.78,1.55,1.59,3.09,2.49,4.58.15.26.72.27,1.22.44Zm-13.06,50.81c-.4-1.5-.59-2.53-1.01-3.45-.06-.13-1.74.19-1.76.36-.07.99.03,2.04.33,2.98.07.2,1.19.07,2.43.11Zm79.38-34.75c.94-.25,1.82-.28,1.9-.55.2-.67.03-1.44,0-2.18-.53.11-1.33.05-1.51.36-.32.53-.25,1.29-.39,2.37Zm-85.24,38.53c-.39-.88-.5-1.69-.89-1.86-.43-.19-1.43.04-1.62.39-.22.4,0,1.37.38,1.65.34.26,1.13-.06,2.13-.18Zm19.8-37.84c-1.1.47-1.84.56-2.08.95-.27.45-.08,1.16-.09,1.77.57-.14,1.31-.1,1.66-.46.34-.34.27-1.07.51-2.26Zm66.71-6.65c-.28-.78-.34-1.52-.68-1.69-.38-.19-1.37.02-1.46.28-.18.48-.04,1.24.27,1.66.15.2.99-.11,1.87-.25Zm-63.55,5.89c-.33-.91-.38-1.69-.71-1.83-.46-.2-1.12.08-1.7.16.14.52.13,1.21.46,1.5.31.27.99.11,1.95.17Zm-21.24,28.92c-.93.48-1.65.63-1.91,1.06-.2.34.18,1.02.31,1.55.57-.18,1.3-.21,1.66-.59.25-.27,0-1.02-.06-2.02Z"/><path class="cls-3" d="m432.23,194.58c-2.43,3.21-5.2,5.93-8.97,7.41-5.21,2.06-10.21,1.68-14.27-2.34-3.09-3.05-6.11-6.35-8.35-10.03-5.78-9.53-2.73-18.63,7.45-23.04,4.24-1.84,8.76-2.77,13.41-2.65,11.25.3,17.36,7.92,15.51,19.23-.69,4.21-2.46,7.97-4.78,11.42Z"/><path class="cls-3" d="m298.91,246.52c-.49-.46-1.17-.73-1.58-1.35-.59-.88-.56-1.76-.07-2.64.44-.79.96-1.53,1.47-2.29.82-1.23,1.56-2.51,2.39-3.73.38-.56.74-1.14,1.13-1.7.98-1.45,1.91-2.92,2.9-4.36.26-.38.5-.79.78-1.16.95-1.25,1.8-2.56,2.7-3.84.57-.82,1.23-1.5,2.06-2.01,1.17-.72,2.47-.89,3.82-.82.24.01.49.01.71.09.37.14.54-.05.7-.32.81-1.42,1.66-2.82,2.5-4.22.77-1.27,1.54-2.53,2.46-3.7.71-.91,1.48-1.77,2.33-2.57.69-.65,1.4-1.26,2.29-1.56,1.15-.39,2.33-.42,3.51-.11,2.08.54,3.99,1.47,5.88,2.45,1.07.55,2.1,1.18,3.02,1.95,1.27,1.07,2.1,2.41,2.46,4.06.39,1.81-.05,3.5-.65,5.17-.44,1.23-.97,2.42-1.59,3.57-.29.55-.58,1.1-.94,1.62-.9,1.32-1.77,2.66-2.66,4-.08.13-.1.23,0,.36.95,1.2,1.52,2.58,1.71,4.09.08.67,0,1.36-.18,2.02-.35,1.31-1,2.49-1.63,3.68-.57,1.08-1.13,2.17-1.72,3.24-.36.65-.78,1.26-1.16,1.89-.33.53-.64,1.07-.96,1.61-.43.74-.84,1.48-1.27,2.21-.49.84-.98,1.68-1.47,2.51-.35.58-.7,1.16-1.06,1.74-.69,1.1-1.4,2.2-2.07,3.32-.53.89-1.76,1.37-2.82.75-1.05-.62-2.14-1.18-3.2-1.79-.75-.43-1.48-.89-2.23-1.32-.78-.46-1.56-.91-2.35-1.36-.69-.4-1.38-.81-2.07-1.2-.9-.51-1.81-1.01-2.71-1.53-.54-.31-1.08-.63-1.61-.96-1.12-.69-2.25-1.37-3.36-2.09-.54-.35-1.07-.71-1.59-1.08-.71-.5-1.44-.97-2.17-1.45-.57-.38-1.11-.79-1.71-1.18Zm25.96-28.41c-.73.86-1.25,1.87-1.82,2.85-.37.64-.77,1.27-1.11,1.94-.27.53-.59,1.04-.86,1.58-.07.14-.19.32.05.44,1.44.71,2.88,1.42,4.32,2.15.9.46,1.79.93,2.67,1.43.75.42,1.48.89,2.22,1.33.14.08.19.05.28-.08.7-1.17,1.41-2.35,2.13-3.51.65-1.04,1.34-2.05,1.97-3.1.28-.46.53-.95.6-1.51.21-1.58-.47-2.75-1.65-3.73-.66-.55-1.44-.92-2.16-1.36-.7-.43-1.43-.81-2.29-.9-.84-.08-1.63-.08-2.39.4-.84.53-1.43,1.27-1.98,2.08Zm-2.4,15.7c-.72-.6-1.51-.77-2.41-.46-.77.26-1.39.72-1.92,1.32-.51.57-.86,1.25-1.27,1.89-.21.33-.47.65-.64,1-.43.9-1.01,1.7-1.51,2.55-.41.7-.9,1.34-1.29,2.05-.6,1.09-1.31,2.11-1.96,3.17-.21.35-.19.61.14.85.69.51,1.49.86,2.21,1.33.8.52,1.6,1.03,2.43,1.49.29.16.72.09.81-.16.19-.59.53-1.09.89-1.57.32-.44.59-.92.89-1.37.69-1.06,1.29-2.19,2.01-3.24.2-.29.38-.6.57-.91.37-.59.68-1.22,1.05-1.81.37-.61.77-1.19,1.07-1.85.74-1.65.24-3.44-1.06-4.27Z"/><path class="cls-2" d="m-77.73,443.36c-.31,1.64-.73,3.28-.92,4.94-.49,4.29-3.05,7.57-5.42,10.89-1.27,1.77-3.39,1.95-5.33,1.06-6.05-2.8-12.14-5.51-18.03-8.62-4.58-2.42-8.93-5.28-13.25-8.15-2.17-1.44-4.12-3.26-6.03-5.06-4.32-4.06-3.4-7.8.7-12.2,1.9-2.03,3.58-4.35,4.92-6.78,1.47-2.66-.06-4.94-3.15-5.07-1.47-.06-2.95.18-4.43.23-1,.03-2.03.09-3-.09-2.27-.43-3.16-2.35-2.11-4.41.55-1.08,1.26-2.08,1.8-3.17,1.47-2.98.28-5.46-3.04-5.55-3.4-.09-6.87.24-10.23.82-4.08.7-7.34-.67-10.1-3.37-9.84-9.62-13.23-21.47-11.56-34.9,1.4-11.25,5.88-21.23,13.01-30.03.51-.63.95-1.32,1.4-1.99.18-.27.32-.57.52-.94-2.59-2.33-5.67-3.43-8.9-4.19-2.18-.52-2.49-1.02-1.57-3.08,1.51-3.35,4.16-5.37,7.61-6.5.79-.26,1.98-.93,2.01-1.47.05-.69-.75-1.63-1.42-2.16-2.66-2.1-2.7-2.06-.27-4.55,6.46-6.59,13.7-12.18,21.58-16.97,1.35-.82,2.38-.87,3.65.11,2.35,1.81,4.77,3.56,7.25,5.18.66.43,1.68.3,2.54.43,0-.86.26-1.85-.08-2.55-1.03-2.2-2.26-4.3-3.47-6.41-.67-1.17-.57-2.04.72-2.63,3.31-1.5,6.62-2.99,9.98-4.51.9,2.21,1.63,4.16,2.49,6.05.2.45.81.72,1.23,1.07.08-.57.36-1.22.19-1.7-.64-1.84-1.43-3.64-2.26-5.69,4.8-1.53,9.59-2.39,14.53-2.03.57.04,1.22,1.1,1.56,1.82,2.12,4.46,4.16,8.96,6.22,13.44l.69-.25c-.35-5.23-.7-10.47-1.06-15.7-.19-2.75-.15-2.82,2.6-3.1,8.35-.84,16.58.08,24.75,1.77,1.29.27,1.67,1.01,1.97,2.18,1.19,4.56,2.45,9.11,3.84,13.62.22.71,1.23,1.17,1.87,1.75.48-.66,1.24-1.25,1.41-1.98,1.04-4.47,2.01-8.96,2.89-13.46.34-1.74,1.01-2.38,2.89-1.98,7.71,1.61,15.08,4.16,22.15,7.61,2.69,1.31,2.68,1.59,1.15,4.25-1.75,3.04-3.4,6.14-4.97,9.28-.28.56.05,1.43.1,2.16.78-.12,1.77.01,2.3-.42,2.83-2.29,5.56-4.7,8.29-7.11,1.24-1.1,2.29-.99,3.57,0,8.95,6.83,15.48,15.55,20.05,25.78.77,1.72.24,2.32-1.91,2.31-13.77-.05-25.79,4.62-36.15,13.58-2.44,2.11-4.5,4.64-6.73,6.99-.89.94-1.15,1.96-.84,3.32.55,2.43-.29,4.54-2.19,6.16-1.67,1.42-3.82,1.26-5.2-.45-.72-.88-1.26-1.91-1.8-2.92-12.13-22.59-30.91-34.1-56.66-34-1.32,0-2.44.24-3.31,1.49-5.73,8.19-11.66,16.25-16.1,25.26-6.4,12.99-9.88,26.57-7.9,41.13.99,7.3,3.68,14.07,7.48,20.38,6.97,11.56,16.47,20.81,26.82,29.25,3.07,2.51,6.39,4.77,9.83,6.74,3.43,1.96,7.15,3.41,10.79,5.11Zm9.05-164.67c-.37-.02-.75-.14-.84-.02-.28.34-.58.75-.63,1.17-.95,7.62-.85,15.23.4,22.81.08.48.6.89.91,1.33.22-.54.7-1.12.62-1.62-1.13-7.39-1.21-14.8-.36-22.22.05-.44-.05-.9-.09-1.45Zm59.97,37.43c.03-.25.16-.57.06-.74-.15-.24-.48-.53-.73-.53-.46.01-.92.2-1.35.36-6.04,2.27-11.6,5.4-16.68,9.38-.5.39-.64,1.24-.94,1.87.65-.19,1.42-.22,1.92-.61,5.01-3.85,10.44-6.93,16.35-9.15.44-.16.86-.37,1.37-.59Zm-31.4-18.6c.94-1.3.69-3.6-.81-3.96-1.44-.35-3.29.04-4.65.71-1.08.53-.29,3.36,1,4.22,1.46.98,3.35.57,4.47-.97Zm-84.57,37.03c.94-1.41.62-3.16-.75-4.05-1.35-.88-3.25-.52-4.1.79-1.17,1.78-1.07,3.4.27,4.27,1.55,1,3.53.57,4.58-1Zm-8.71-20.76c.72.03,1.19.05,1.66.07-.11-.53-.06-1.18-.36-1.58-2.8-3.8-5.63-7.57-8.51-11.3-.29-.37-.93-.47-1.41-.7,0,.49-.17,1.1.06,1.44,2.81,4.03,5.68,8.02,8.57,12.07Zm20.64-8.84c.71-1.72.19-3.93-1.1-4.87-1.42-1.04-2.26.11-3.02.94-.92,1-.82,4.25.11,4.41,1.28.21,2.67-.28,4.01-.47Zm110.09,12.07c1.33-1.97,1.31-3.73.13-4.12-.7-.23-1.95.17-2.49.74-1.12,1.17-1.02,3.44.05,3.75.82.24,1.86-.28,2.31-.37Zm-30.69,1.67c.85-.17,1.2-.14,1.34-.29,1.82-1.98,3.64-3.97,5.39-6.01.18-.21-.09-.8-.15-1.21-.4.14-.93.17-1.19.45-1.6,1.73-3.16,3.51-4.68,5.31-.29.35-.37.88-.71,1.75Zm-112.72-4.29c.47.01.95.02,1.43.03-.08-.47-.01-1.07-.28-1.39-1.28-1.56-2.62-3.07-4.01-4.53-.29-.31-.88-.34-1.33-.5.03.48-.13,1.1.11,1.41,1.26,1.65,2.63,3.23,4.09,4.98Zm71.72-23.52c-.29-2.33-.56-4.59-.89-6.84-.02-.15-.61-.36-.83-.28-.24.1-.54.51-.52.77.15,2.02.34,4.03.58,6.04.03.25.36.6.62.66.25.06.57-.18,1.04-.36Zm-39.68.93c.07-.53.21-.84.11-1.02-.84-1.6-1.7-3.19-2.61-4.74-.09-.16-.67-.19-.89-.06-.21.12-.41.63-.32.81.78,1.55,1.59,3.09,2.49,4.58.15.26.72.27,1.22.44Zm-13.06,50.81c-.4-1.5-.59-2.53-1.01-3.45-.06-.13-1.74.19-1.76.36-.07.99.03,2.04.33,2.98.07.2,1.19.07,2.43.11Zm79.38-34.75c.94-.25,1.82-.28,1.9-.55.2-.67.03-1.44,0-2.18-.53.11-1.33.05-1.51.36-.32.53-.25,1.29-.39,2.37Zm-85.24,38.53c-.39-.88-.5-1.69-.89-1.86-.43-.19-1.43.04-1.62.39-.22.4,0,1.37.38,1.65.34.26,1.13-.06,2.13-.18Zm19.8-37.84c-1.1.47-1.84.56-2.08.95-.27.45-.08,1.16-.09,1.77.57-.14,1.31-.1,1.66-.46.34-.34.27-1.07.51-2.26Zm66.71-6.65c-.28-.78-.34-1.52-.68-1.69-.38-.19-1.37.02-1.46.28-.18.48-.04,1.24.27,1.66.15.2.99-.11,1.87-.25Zm-63.55,5.89c-.33-.91-.38-1.69-.71-1.83-.46-.2-1.12.08-1.7.16.14.52.13,1.21.46,1.5.31.27.99.11,1.95.17Zm-21.24,28.92c-.93.48-1.65.63-1.91,1.06-.2.34.18,1.02.31,1.55.57-.18,1.3-.21,1.66-.59.25-.27,0-1.02-.06-2.02Z"/><path class="cls-2" d="m-23.37,388.74c-.66-.62-1.59-.97-2.15-1.79-.81-1.17-.78-2.36-.14-3.55.58-1.07,1.27-2.08,1.94-3.11,1.08-1.67,2.06-3.41,3.15-5.07.5-.77.98-1.55,1.49-2.31,1.3-1.96,2.53-3.97,3.84-5.93.35-.52.66-1.07,1.04-1.57,1.25-1.7,2.39-3.48,3.57-5.22.76-1.12,1.63-2.04,2.74-2.74,1.56-.99,3.31-1.24,5.12-1.17.32.01.67,0,.96.11.5.18.73-.08.93-.45,1.06-1.93,2.18-3.83,3.3-5.73,1.01-1.72,2.04-3.43,3.25-5.02.94-1.24,1.97-2.41,3.1-3.5.92-.89,1.86-1.72,3.06-2.14,1.54-.54,3.13-.6,4.72-.21,2.81.69,5.4,1.92,7.97,3.2,1.45.73,2.85,1.55,4.1,2.58,1.73,1.42,2.88,3.21,3.38,5.43.55,2.44,0,4.71-.78,6.98-.57,1.67-1.27,3.28-2.08,4.84-.39.74-.76,1.5-1.23,2.2-1.2,1.79-2.34,3.62-3.51,5.43-.11.17-.12.31.02.49,1.3,1.6,2.09,3.45,2.37,5.48.12.9.01,1.83-.21,2.73-.45,1.77-1.31,3.37-2.13,4.98-.75,1.47-1.48,2.94-2.26,4.39-.47.87-1.02,1.71-1.53,2.56-.43.72-.85,1.45-1.26,2.19-.56,1-1.11,2-1.67,3-.64,1.14-1.29,2.28-1.94,3.41-.46.79-.93,1.58-1.4,2.36-.92,1.5-1.84,2.99-2.72,4.51-.7,1.21-2.35,1.88-3.79,1.06-1.43-.81-2.9-1.56-4.34-2.36-1.02-.56-2.01-1.17-3.03-1.75-1.06-.6-2.12-1.19-3.18-1.79-.94-.53-1.87-1.06-2.81-1.58-1.22-.68-2.45-1.33-3.67-2.01-.74-.41-1.46-.83-2.19-1.27-1.52-.91-3.05-1.81-4.56-2.75-.73-.46-1.45-.94-2.16-1.43-.97-.66-1.96-1.28-2.94-1.91-.77-.5-1.5-1.05-2.32-1.56Zm34.48-38.71c-.96,1.17-1.65,2.54-2.4,3.87-.49.87-1.02,1.73-1.46,2.63-.36.72-.78,1.41-1.13,2.14-.09.18-.26.43.08.6,1.95.94,3.91,1.87,5.85,2.83,1.22.6,2.43,1.23,3.62,1.88,1.02.56,2.01,1.17,3.02,1.76.18.11.26.07.37-.12.93-1.59,1.86-3.19,2.82-4.77.85-1.41,1.77-2.79,2.6-4.21.36-.63.69-1.29.78-2.04.26-2.13-.68-3.7-2.28-4.99-.9-.73-1.95-1.21-2.94-1.8-.95-.57-1.95-1.07-3.1-1.17-1.13-.1-2.2-.08-3.21.57-1.12.73-1.9,1.74-2.62,2.84Zm-2.97,21.18c-.98-.79-2.04-1.01-3.25-.58-1.03.37-1.86,1-2.56,1.81-.67.78-1.14,1.7-1.68,2.56-.28.45-.63.88-.85,1.36-.56,1.22-1.34,2.3-1.99,3.46-.53.95-1.19,1.83-1.7,2.78-.79,1.48-1.73,2.87-2.58,4.3-.28.47-.24.82.2,1.14.94.68,2.02,1.13,2.99,1.75,1.08.69,2.17,1.36,3.3,1.96.4.21.98.11,1.08-.23.25-.8.7-1.47,1.18-2.14.43-.6.78-1.24,1.17-1.86.92-1.44,1.7-2.97,2.65-4.4.26-.4.51-.82.76-1.23.48-.81.9-1.65,1.39-2.46.49-.82,1.02-1.62,1.41-2.51.97-2.24.27-4.63-1.5-5.74Z"/><path class="cls-2" d="m127.8,443.36c-.31,1.64-.73,3.28-.92,4.94-.49,4.29-3.05,7.57-5.42,10.89-1.27,1.77-3.39,1.95-5.33,1.06-6.05-2.8-12.14-5.51-18.03-8.62-4.58-2.42-8.93-5.28-13.25-8.15-2.17-1.44-4.12-3.26-6.03-5.06-4.32-4.06-3.4-7.8.7-12.2,1.9-2.03,3.58-4.35,4.92-6.78,1.47-2.66-.06-4.94-3.15-5.07-1.47-.06-2.95.18-4.43.23-1,.03-2.03.09-3-.09-2.27-.43-3.16-2.35-2.11-4.41.55-1.08,1.26-2.08,1.8-3.17,1.47-2.98.28-5.46-3.04-5.55-3.4-.09-6.87.24-10.23.82-4.08.7-7.34-.67-10.1-3.37-9.84-9.62-13.23-21.47-11.56-34.9,1.4-11.25,5.88-21.23,13.01-30.03.51-.63.95-1.32,1.4-1.99.18-.27.32-.57.52-.94-2.59-2.33-5.67-3.43-8.9-4.19-2.18-.52-2.49-1.02-1.57-3.08,1.51-3.35,4.16-5.37,7.61-6.5.79-.26,1.98-.93,2.01-1.47.05-.69-.75-1.63-1.42-2.16-2.66-2.1-2.7-2.06-.27-4.55,6.46-6.59,13.7-12.18,21.58-16.97,1.35-.82,2.38-.87,3.65.11,2.35,1.81,4.77,3.56,7.25,5.18.66.43,1.68.3,2.54.43,0-.86.26-1.85-.08-2.55-1.03-2.2-2.26-4.3-3.47-6.41-.67-1.17-.57-2.04.72-2.63,3.31-1.5,6.62-2.99,9.98-4.51.9,2.21,1.63,4.16,2.49,6.05.2.45.81.72,1.23,1.07.08-.57.36-1.22.19-1.7-.64-1.84-1.43-3.64-2.26-5.69,4.8-1.53,9.59-2.39,14.53-2.03.57.04,1.22,1.1,1.56,1.82,2.12,4.46,4.16,8.96,6.22,13.44l.69-.25c-.35-5.23-.7-10.47-1.06-15.7-.19-2.75-.15-2.82,2.6-3.1,8.35-.84,16.58.08,24.75,1.77,1.29.27,1.67,1.01,1.97,2.18,1.19,4.56,2.45,9.11,3.84,13.62.22.71,1.23,1.17,1.87,1.75.48-.66,1.24-1.25,1.41-1.98,1.04-4.47,2.01-8.96,2.89-13.46.34-1.74,1.01-2.38,2.89-1.98,7.71,1.61,15.08,4.16,22.15,7.61,2.69,1.31,2.68,1.59,1.15,4.25-1.75,3.04-3.4,6.14-4.97,9.28-.28.56.05,1.43.1,2.16.78-.12,1.77.01,2.3-.42,2.83-2.29,5.56-4.7,8.29-7.11,1.24-1.1,2.29-.99,3.57,0,8.95,6.83,15.48,15.55,20.05,25.78.77,1.72.24,2.32-1.91,2.31-13.77-.05-25.79,4.62-36.15,13.58-2.44,2.11-4.5,4.64-6.73,6.99-.89.94-1.15,1.96-.84,3.32.55,2.43-.29,4.54-2.19,6.16-1.67,1.42-3.82,1.26-5.2-.45-.72-.88-1.26-1.91-1.8-2.92-12.13-22.59-30.91-34.1-56.66-34-1.32,0-2.44.24-3.31,1.49-5.73,8.19-11.66,16.25-16.1,25.26-6.4,12.99-9.88,26.57-7.9,41.13.99,7.3,3.68,14.07,7.48,20.38,6.97,11.56,16.47,20.81,26.82,29.25,3.07,2.51,6.39,4.77,9.83,6.74,3.43,1.96,7.15,3.41,10.79,5.11Zm9.05-164.67c-.37-.02-.75-.14-.84-.02-.28.34-.58.75-.63,1.17-.95,7.62-.85,15.23.4,22.81.08.48.6.89.91,1.33.22-.54.7-1.12.62-1.62-1.13-7.39-1.21-14.8-.36-22.22.05-.44-.05-.9-.09-1.45Zm59.97,37.43c.03-.25.16-.57.06-.74-.15-.24-.48-.53-.73-.53-.46.01-.92.2-1.35.36-6.04,2.27-11.6,5.4-16.68,9.38-.5.39-.64,1.24-.94,1.87.65-.19,1.42-.22,1.92-.61,5.01-3.85,10.44-6.93,16.35-9.15.44-.16.86-.37,1.37-.59Zm-31.4-18.6c.94-1.3.69-3.6-.81-3.96-1.44-.35-3.29.04-4.65.71-1.08.53-.29,3.36,1,4.22,1.46.98,3.35.57,4.47-.97Zm-84.57,37.03c.94-1.41.62-3.16-.75-4.05-1.35-.88-3.25-.52-4.1.79-1.17,1.78-1.07,3.4.27,4.27,1.55,1,3.53.57,4.58-1Zm-8.71-20.76c.72.03,1.19.05,1.66.07-.11-.53-.06-1.18-.36-1.58-2.8-3.8-5.63-7.57-8.51-11.3-.29-.37-.93-.47-1.41-.7,0,.49-.17,1.1.06,1.44,2.81,4.03,5.68,8.02,8.57,12.07Zm20.64-8.84c.71-1.72.19-3.93-1.1-4.87-1.42-1.04-2.26.11-3.02.94-.92,1-.82,4.25.11,4.41,1.28.21,2.67-.28,4.01-.47Zm110.09,12.07c1.33-1.97,1.31-3.73.13-4.12-.7-.23-1.95.17-2.49.74-1.12,1.17-1.02,3.44.05,3.75.82.24,1.86-.28,2.31-.37Zm-30.69,1.67c.85-.17,1.2-.14,1.34-.29,1.82-1.98,3.64-3.97,5.39-6.01.18-.21-.09-.8-.15-1.21-.4.14-.93.17-1.19.45-1.6,1.73-3.16,3.51-4.68,5.31-.29.35-.37.88-.71,1.75Zm-112.72-4.29c.47.01.95.02,1.43.03-.08-.47-.01-1.07-.28-1.39-1.28-1.56-2.62-3.07-4.01-4.53-.29-.31-.88-.34-1.33-.5.03.48-.13,1.1.11,1.41,1.26,1.65,2.63,3.23,4.09,4.98Zm71.72-23.52c-.29-2.33-.56-4.59-.89-6.84-.02-.15-.61-.36-.83-.28-.24.1-.54.51-.52.77.15,2.02.34,4.03.58,6.04.03.25.36.6.62.66.25.06.57-.18,1.04-.36Zm-39.68.93c.07-.53.21-.84.11-1.02-.84-1.6-1.7-3.19-2.61-4.74-.09-.16-.67-.19-.89-.06-.21.12-.41.63-.32.81.78,1.55,1.59,3.09,2.49,4.58.15.26.72.27,1.22.44Zm-13.06,50.81c-.4-1.5-.59-2.53-1.01-3.45-.06-.13-1.74.19-1.76.36-.07.99.03,2.04.33,2.98.07.2,1.19.07,2.43.11Zm79.38-34.75c.94-.25,1.82-.28,1.9-.55.2-.67.03-1.44,0-2.18-.53.11-1.33.05-1.51.36-.32.53-.25,1.29-.39,2.37Zm-85.24,38.53c-.39-.88-.5-1.69-.89-1.86-.43-.19-1.43.04-1.62.39-.22.4,0,1.37.38,1.65.34.26,1.13-.06,2.13-.18Zm19.8-37.84c-1.1.47-1.84.56-2.08.95-.27.45-.08,1.16-.09,1.77.57-.14,1.31-.1,1.66-.46.34-.34.27-1.07.51-2.26Zm66.71-6.65c-.28-.78-.34-1.52-.68-1.69-.38-.19-1.37.02-1.46.28-.18.48-.04,1.24.27,1.66.15.2.99-.11,1.87-.25Zm-63.55,5.89c-.33-.91-.38-1.69-.71-1.83-.46-.2-1.12.08-1.7.16.14.52.13,1.21.46,1.5.31.27.99.11,1.95.17Zm-21.24,28.92c-.93.48-1.65.63-1.91,1.06-.2.34.18,1.02.31,1.55.57-.18,1.3-.21,1.66-.59.25-.27,0-1.02-.06-2.02Z"/><path class="cls-3" d="m123.93,394.33c-2.43,3.21-5.2,5.93-8.97,7.41-5.21,2.06-10.21,1.68-14.27-2.34-3.09-3.05-6.11-6.35-8.35-10.03-5.78-9.53-2.73-18.63,7.45-23.04,4.24-1.84,8.76-2.77,13.41-2.65,11.25.3,17.36,7.92,15.51,19.23-.69,4.21-2.46,7.97-4.78,11.42Z"/><path class="cls-3" d="m159.82,420.37c-2.43,3.26-5.41,6.11-9.62,7.39-4.08,1.24-7.68.46-10.92-2.37-3.21-2.79-5.77-6.04-7.54-9.9-2.91-6.33-.99-13.12,4.88-16.82,4.62-2.92,9.75-4.34,15.2-4.23,8.72.18,13.75,6.33,12.42,14.95-.61,3.94-2.09,7.52-4.43,10.98Z"/><path class="cls-2" d="m164.72,353.6c6.52,3.04,9.65,36.9,4.22,42.56,3.09-14.46,2.25-28.54-4.22-42.56Z"/><path class="cls-2" d="m142.25,332.56c-.75-.44-1.58-.8-2.25-1.35-6.67-5.52-14.03-9.83-22.31-12.38-2.81-.87-5.81-1.14-8.72-1.67-.57-.1-1.15-.15-1.73-.22-.04-.23-.08-.47-.12-.7.62-.13,1.3-.47,1.87-.34,4.77,1.11,9.69,1.87,14.25,3.58,6.52,2.45,12.29,6.42,17.74,10.77.47.38.88.83,1.3,1.27.13.13.17.34.26.51-.09.17-.19.35-.28.52Z"/><path class="cls-2" d="m138.42,333.93c-5.55-3.43-11.1-6.87-16.84-10.42,2.33-.66,15.57,7.34,16.84,10.42Z"/><path class="cls-2" d="m166.28,378.37c-.69-3.38-1.39-6.77-2.08-10.15,1.86.85,3.46,8.18,2.77,10.02-.23.04-.46.09-.69.13Z"/><path class="cls-2" d="m144.56,337.06c1.77-.08,4.82,2.51,5.7,4.79-2.74-.97-3.94-3.21-5.7-4.79Z"/><path class="cls-2" d="m161.04,377.52c.03-1.09.06-2.18.09-3.27.25,0,.49,0,.74,0,.74,1.08.69,2.18-.11,3.31-.24-.01-.48-.02-.72-.03Z"/><path class="cls-2" d="m182.16,388.74c-.66-.62-1.59-.97-2.15-1.79-.81-1.17-.78-2.36-.14-3.55.58-1.07,1.27-2.08,1.94-3.11,1.08-1.67,2.06-3.41,3.15-5.07.5-.77.98-1.55,1.49-2.31,1.3-1.96,2.53-3.97,3.84-5.93.35-.52.66-1.07,1.04-1.57,1.25-1.7,2.39-3.48,3.57-5.22.76-1.12,1.63-2.04,2.74-2.74,1.56-.99,3.31-1.24,5.12-1.17.32.01.67,0,.96.11.5.18.73-.08.93-.45,1.06-1.93,2.18-3.83,3.3-5.73,1.01-1.72,2.04-3.43,3.25-5.02.94-1.24,1.97-2.41,3.1-3.5.92-.89,1.86-1.72,3.06-2.14,1.54-.54,3.13-.6,4.72-.21,2.81.69,5.4,1.92,7.97,3.2,1.45.73,2.85,1.55,4.1,2.58,1.73,1.42,2.88,3.21,3.38,5.43.55,2.44,0,4.71-.78,6.98-.57,1.67-1.27,3.28-2.08,4.84-.39.74-.76,1.5-1.23,2.2-1.2,1.79-2.34,3.62-3.51,5.43-.11.17-.12.31.02.49,1.3,1.6,2.09,3.45,2.37,5.48.12.9.01,1.83-.21,2.73-.45,1.77-1.31,3.37-2.13,4.98-.75,1.47-1.48,2.94-2.26,4.39-.47.87-1.02,1.71-1.53,2.56-.43.72-.85,1.45-1.26,2.19-.56,1-1.11,2-1.67,3-.64,1.14-1.29,2.28-1.94,3.41-.46.79-.93,1.58-1.4,2.36-.92,1.5-1.84,2.99-2.72,4.51-.7,1.21-2.35,1.88-3.79,1.06-1.43-.81-2.9-1.56-4.34-2.36-1.02-.56-2.01-1.17-3.03-1.75-1.06-.6-2.12-1.19-3.18-1.79-.94-.53-1.87-1.06-2.81-1.58-1.22-.68-2.45-1.33-3.67-2.01-.74-.41-1.46-.83-2.19-1.27-1.52-.91-3.05-1.81-4.56-2.75-.73-.46-1.45-.94-2.16-1.43-.97-.66-1.96-1.28-2.94-1.91-.77-.5-1.5-1.05-2.32-1.56Zm34.48-38.71c-.96,1.17-1.65,2.54-2.4,3.87-.49.87-1.02,1.73-1.46,2.63-.36.72-.78,1.41-1.13,2.14-.09.18-.26.43.08.6,1.95.94,3.91,1.87,5.85,2.83,1.22.6,2.43,1.23,3.62,1.88,1.02.56,2.01,1.17,3.02,1.76.18.11.26.07.37-.12.93-1.59,1.86-3.19,2.82-4.77.85-1.41,1.77-2.79,2.6-4.21.36-.63.69-1.29.78-2.04.26-2.13-.68-3.7-2.28-4.99-.9-.73-1.95-1.21-2.94-1.8-.95-.57-1.95-1.07-3.1-1.17-1.13-.1-2.2-.08-3.21.57-1.12.73-1.9,1.74-2.62,2.84Zm-2.97,21.18c-.98-.79-2.04-1.01-3.25-.58-1.03.37-1.86,1-2.56,1.81-.67.78-1.14,1.7-1.68,2.56-.28.45-.63.88-.85,1.36-.56,1.22-1.34,2.3-1.99,3.46-.53.95-1.19,1.83-1.7,2.78-.79,1.48-1.73,2.87-2.58,4.3-.28.47-.24.82.2,1.14.94.68,2.02,1.13,2.99,1.75,1.08.69,2.17,1.36,3.3,1.96.4.21.98.11,1.08-.23.25-.8.7-1.47,1.18-2.14.43-.6.78-1.24,1.17-1.86.92-1.44,1.7-2.97,2.65-4.4.26-.4.51-.82.76-1.23.48-.81.9-1.65,1.39-2.46.49-.82,1.02-1.62,1.41-2.51.97-2.24.27-4.63-1.5-5.74Z"/><path class="cls-2" d="m333.34,443.36c-.31,1.64-.73,3.28-.92,4.94-.49,4.29-3.05,7.57-5.42,10.89-1.27,1.77-3.39,1.95-5.33,1.06-6.05-2.8-12.14-5.51-18.03-8.62-4.58-2.42-8.93-5.28-13.25-8.15-2.17-1.44-4.12-3.26-6.03-5.06-4.32-4.06-3.4-7.8.7-12.2,1.9-2.03,3.58-4.35,4.92-6.78,1.47-2.66-.06-4.94-3.15-5.07-1.47-.06-2.95.18-4.43.23-1,.03-2.03.09-3-.09-2.27-.43-3.16-2.35-2.11-4.41.55-1.08,1.26-2.08,1.8-3.17,1.47-2.98.28-5.46-3.04-5.55-3.4-.09-6.87.24-10.23.82-4.08.7-7.34-.67-10.1-3.37-9.84-9.62-13.23-21.47-11.56-34.9,1.4-11.25,5.88-21.23,13.01-30.03.51-.63.95-1.32,1.4-1.99.18-.27.32-.57.52-.94-2.59-2.33-5.67-3.43-8.9-4.19-2.18-.52-2.49-1.02-1.57-3.08,1.51-3.35,4.16-5.37,7.61-6.5.79-.26,1.98-.93,2.01-1.47.05-.69-.75-1.63-1.42-2.16-2.66-2.1-2.7-2.06-.27-4.55,6.46-6.59,13.7-12.18,21.58-16.97,1.35-.82,2.38-.87,3.65.11,2.35,1.81,4.77,3.56,7.25,5.18.66.43,1.68.3,2.54.43,0-.86.26-1.85-.08-2.55-1.03-2.2-2.26-4.3-3.47-6.41-.67-1.17-.57-2.04.72-2.63,3.31-1.5,6.62-2.99,9.98-4.51.9,2.21,1.63,4.16,2.49,6.05.2.45.81.72,1.23,1.07.08-.57.36-1.22.19-1.7-.64-1.84-1.43-3.64-2.26-5.69,4.8-1.53,9.59-2.39,14.53-2.03.57.04,1.22,1.1,1.56,1.82,2.12,4.46,4.16,8.96,6.22,13.44l.69-.25c-.35-5.23-.7-10.47-1.06-15.7-.19-2.75-.15-2.82,2.6-3.1,8.35-.84,16.58.08,24.75,1.77,1.29.27,1.67,1.01,1.97,2.18,1.19,4.56,2.45,9.11,3.84,13.62.22.71,1.23,1.17,1.87,1.75.48-.66,1.24-1.25,1.41-1.98,1.04-4.47,2.01-8.96,2.89-13.46.34-1.74,1.01-2.38,2.89-1.98,7.71,1.61,15.08,4.16,22.15,7.61,2.69,1.31,2.68,1.59,1.15,4.25-1.75,3.04-3.4,6.14-4.97,9.28-.28.56.05,1.43.1,2.16.78-.12,1.77.01,2.3-.42,2.83-2.29,5.56-4.7,8.29-7.11,1.24-1.1,2.29-.99,3.57,0,8.95,6.83,15.48,15.55,20.05,25.78.77,1.72.24,2.32-1.91,2.31-13.77-.05-25.79,4.62-36.15,13.58-2.44,2.11-4.5,4.64-6.73,6.99-.89.94-1.15,1.96-.84,3.32.55,2.43-.29,4.54-2.19,6.16-1.67,1.42-3.82,1.26-5.2-.45-.72-.88-1.26-1.91-1.8-2.92-12.13-22.59-30.91-34.1-56.66-34-1.32,0-2.44.24-3.31,1.49-5.73,8.19-11.66,16.25-16.1,25.26-6.4,12.99-9.88,26.57-7.9,41.13.99,7.3,3.68,14.07,7.48,20.38,6.97,11.56,16.47,20.81,26.82,29.25,3.07,2.51,6.39,4.77,9.83,6.74,3.43,1.96,7.15,3.41,10.79,5.11Zm9.05-164.67c-.37-.02-.75-.14-.84-.02-.28.34-.58.75-.63,1.17-.95,7.62-.85,15.23.4,22.81.08.48.6.89.91,1.33.22-.54.7-1.12.62-1.62-1.13-7.39-1.21-14.8-.36-22.22.05-.44-.05-.9-.09-1.45Zm59.97,37.43c.03-.25.16-.57.06-.74-.15-.24-.48-.53-.73-.53-.46.01-.92.2-1.35.36-6.04,2.27-11.6,5.4-16.68,9.38-.5.39-.64,1.24-.94,1.87.65-.19,1.42-.22,1.92-.61,5.01-3.85,10.44-6.93,16.35-9.15.44-.16.86-.37,1.37-.59Zm-31.4-18.6c.94-1.3.69-3.6-.81-3.96-1.44-.35-3.29.04-4.65.71-1.08.53-.29,3.36,1,4.22,1.46.98,3.35.57,4.47-.97Zm-84.57,37.03c.94-1.41.62-3.16-.75-4.05-1.35-.88-3.25-.52-4.1.79-1.17,1.78-1.07,3.4.27,4.27,1.55,1,3.53.57,4.58-1Zm-8.71-20.76c.72.03,1.19.05,1.66.07-.11-.53-.06-1.18-.36-1.58-2.8-3.8-5.63-7.57-8.51-11.3-.29-.37-.93-.47-1.41-.7,0,.49-.17,1.1.06,1.44,2.81,4.03,5.68,8.02,8.57,12.07Zm20.64-8.84c.71-1.72.19-3.93-1.1-4.87-1.42-1.04-2.26.11-3.02.94-.92,1-.82,4.25.11,4.41,1.28.21,2.67-.28,4.01-.47Zm110.09,12.07c1.33-1.97,1.31-3.73.13-4.12-.7-.23-1.95.17-2.49.74-1.12,1.17-1.02,3.44.05,3.75.82.24,1.86-.28,2.31-.37Zm-30.69,1.67c.85-.17,1.2-.14,1.34-.29,1.82-1.98,3.64-3.97,5.39-6.01.18-.21-.09-.8-.15-1.21-.4.14-.93.17-1.19.45-1.6,1.73-3.16,3.51-4.68,5.31-.29.35-.37.88-.71,1.75Zm-112.72-4.29c.47.01.95.02,1.43.03-.08-.47-.01-1.07-.28-1.39-1.28-1.56-2.62-3.07-4.01-4.53-.29-.31-.88-.34-1.33-.5.03.48-.13,1.1.11,1.41,1.26,1.65,2.63,3.23,4.09,4.98Zm71.72-23.52c-.29-2.33-.56-4.59-.89-6.84-.02-.15-.61-.36-.83-.28-.24.1-.54.51-.52.77.15,2.02.34,4.03.58,6.04.03.25.36.6.62.66.25.06.57-.18,1.04-.36Zm-39.68.93c.07-.53.21-.84.11-1.02-.84-1.6-1.7-3.19-2.61-4.74-.09-.16-.67-.19-.89-.06-.21.12-.41.63-.32.81.78,1.55,1.59,3.09,2.49,4.58.15.26.72.27,1.22.44Zm-13.06,50.81c-.4-1.5-.59-2.53-1.01-3.45-.06-.13-1.74.19-1.76.36-.07.99.03,2.04.33,2.98.07.2,1.19.07,2.43.11Zm79.38-34.75c.94-.25,1.82-.28,1.9-.55.2-.67.03-1.44,0-2.18-.53.11-1.33.05-1.51.36-.32.53-.25,1.29-.39,2.37Zm-85.24,38.53c-.39-.88-.5-1.69-.89-1.86-.43-.19-1.43.04-1.62.39-.22.4,0,1.37.38,1.65.34.26,1.13-.06,2.13-.18Zm19.8-37.84c-1.1.47-1.84.56-2.08.95-.27.45-.08,1.16-.09,1.77.57-.14,1.31-.1,1.66-.46.34-.34.27-1.07.51-2.26Zm66.71-6.65c-.28-.78-.34-1.52-.68-1.69-.38-.19-1.37.02-1.46.28-.18.48-.04,1.24.27,1.66.15.2.99-.11,1.87-.25Zm-63.55,5.89c-.33-.91-.38-1.69-.71-1.83-.46-.2-1.12.08-1.7.16.14.52.13,1.21.46,1.5.31.27.99.11,1.95.17Zm-21.24,28.92c-.93.48-1.65.63-1.91,1.06-.2.34.18,1.02.31,1.55.57-.18,1.3-.21,1.66-.59.25-.27,0-1.02-.06-2.02Z"/><path class="cls-3" d="m329.46,394.33c-2.43,3.21-5.2,5.93-8.97,7.41-5.21,2.06-10.21,1.68-14.27-2.34-3.09-3.05-6.11-6.35-8.35-10.03-5.78-9.53-2.73-18.63,7.45-23.04,4.24-1.84,8.76-2.77,13.41-2.65,11.25.3,17.36,7.92,15.51,19.23-.69,4.21-2.46,7.97-4.78,11.42Z"/><path class="cls-3" d="m365.36,420.37c-2.43,3.26-5.41,6.11-9.62,7.39-4.08,1.24-7.68.46-10.92-2.37-3.21-2.79-5.77-6.04-7.54-9.9-2.91-6.33-.99-13.12,4.88-16.82,4.62-2.92,9.75-4.34,15.2-4.23,8.72.18,13.75,6.33,12.42,14.95-.61,3.94-2.09,7.52-4.43,10.98Z"/><path class="cls-2" d="m370.26,353.6c6.52,3.04,9.65,36.9,4.22,42.56,3.09-14.46,2.25-28.54-4.22-42.56Z"/><path class="cls-2" d="m347.79,332.56c-.75-.44-1.58-.8-2.25-1.35-6.67-5.52-14.03-9.83-22.31-12.38-2.81-.87-5.81-1.14-8.72-1.67-.57-.1-1.15-.15-1.73-.22-.04-.23-.08-.47-.12-.7.62-.13,1.3-.47,1.87-.34,4.77,1.11,9.69,1.87,14.25,3.58,6.52,2.45,12.29,6.42,17.74,10.77.47.38.88.83,1.3,1.27.13.13.17.34.26.51-.09.17-.19.35-.28.52Z"/><path class="cls-2" d="m343.95,333.93c-5.55-3.43-11.1-6.87-16.84-10.42,2.33-.66,15.57,7.34,16.84,10.42Z"/><path class="cls-2" d="m371.81,378.37c-.69-3.38-1.39-6.77-2.08-10.15,1.86.85,3.46,8.18,2.77,10.02-.23.04-.46.09-.69.13Z"/><path class="cls-2" d="m350.1,337.06c1.77-.08,4.82,2.51,5.7,4.79-2.74-.97-3.94-3.21-5.7-4.79Z"/><path class="cls-2" d="m366.57,377.52c.03-1.09.06-2.18.09-3.27.25,0,.49,0,.74,0,.74,1.08.69,2.18-.11,3.31-.24-.01-.48-.02-.72-.03Z"/><path class="cls-2" d="m387.7,388.74c-.66-.62-1.59-.97-2.15-1.79-.81-1.17-.78-2.36-.14-3.55.58-1.07,1.27-2.08,1.94-3.11,1.08-1.67,2.06-3.41,3.15-5.07.5-.77.98-1.55,1.49-2.31,1.3-1.96,2.53-3.97,3.84-5.93.35-.52.66-1.07,1.04-1.57,1.25-1.7,2.39-3.48,3.57-5.22.76-1.12,1.63-2.04,2.74-2.74,1.56-.99,3.31-1.24,5.12-1.17.32.01.67,0,.96.11.5.18.73-.08.93-.45,1.06-1.93,2.18-3.83,3.3-5.73,1.01-1.72,2.04-3.43,3.25-5.02.94-1.24,1.97-2.41,3.1-3.5.92-.89,1.86-1.72,3.06-2.14,1.54-.54,3.13-.6,4.72-.21,2.81.69,5.4,1.92,7.97,3.2,1.45.73,2.85,1.55,4.1,2.58,1.73,1.42,2.88,3.21,3.38,5.43.55,2.44,0,4.71-.78,6.98-.57,1.67-1.27,3.28-2.08,4.84-.39.74-.76,1.5-1.23,2.2-1.2,1.79-2.34,3.62-3.51,5.43-.11.17-.12.31.02.49,1.3,1.6,2.09,3.45,2.37,5.48.12.9.01,1.83-.21,2.73-.45,1.77-1.31,3.37-2.13,4.98-.75,1.47-1.48,2.94-2.26,4.39-.47.87-1.02,1.71-1.53,2.56-.43.72-.85,1.45-1.26,2.19-.56,1-1.11,2-1.67,3-.64,1.14-1.29,2.28-1.94,3.41-.46.79-.93,1.58-1.4,2.36-.92,1.5-1.84,2.99-2.72,4.51-.7,1.21-2.35,1.88-3.79,1.06-1.43-.81-2.9-1.56-4.34-2.36-1.02-.56-2.01-1.17-3.03-1.75-1.06-.6-2.12-1.19-3.18-1.79-.94-.53-1.87-1.06-2.81-1.58-1.22-.68-2.45-1.33-3.67-2.01-.74-.41-1.46-.83-2.19-1.27-1.52-.91-3.05-1.81-4.56-2.75-.73-.46-1.45-.94-2.16-1.43-.97-.66-1.96-1.28-2.94-1.91-.77-.5-1.5-1.05-2.32-1.56Zm34.48-38.71c-.96,1.17-1.65,2.54-2.4,3.87-.49.87-1.02,1.73-1.46,2.63-.36.72-.78,1.41-1.13,2.14-.09.18-.26.43.08.6,1.95.94,3.91,1.87,5.85,2.83,1.22.6,2.43,1.23,3.62,1.88,1.02.56,2.01,1.17,3.02,1.76.18.11.26.07.37-.12.93-1.59,1.86-3.19,2.82-4.77.85-1.41,1.77-2.79,2.6-4.21.36-.63.69-1.29.78-2.04.26-2.13-.68-3.7-2.28-4.99-.9-.73-1.95-1.21-2.94-1.8-.95-.57-1.95-1.07-3.1-1.17-1.13-.1-2.2-.08-3.21.57-1.12.73-1.9,1.74-2.62,2.84Zm-2.97,21.18c-.98-.79-2.04-1.01-3.25-.58-1.03.37-1.86,1-2.56,1.81-.67.78-1.14,1.7-1.68,2.56-.28.45-.63.88-.85,1.36-.56,1.22-1.34,2.3-1.99,3.46-.53.95-1.19,1.83-1.7,2.78-.79,1.48-1.73,2.87-2.58,4.3-.28.47-.24.82.2,1.14.94.68,2.02,1.13,2.99,1.75,1.08.69,2.17,1.36,3.3,1.96.4.21.98.11,1.08-.23.25-.8.7-1.47,1.18-2.14.43-.6.78-1.24,1.17-1.86.92-1.44,1.7-2.97,2.65-4.4.26-.4.51-.82.76-1.23.48-.81.9-1.65,1.39-2.46.49-.82,1.02-1.62,1.41-2.51.97-2.24.27-4.63-1.5-5.74Z"/></svg>